<svg width="16" height="16" viewBox="0 0 16 16" fill="none"
  xmlns="http://www.w3.org/2000/svg">
  <path d="M12.6667 12.6666H3.33333V5.33329H12.6667V12.6666ZM10.6667 0.666626V1.99996H5.33333V0.666626H4V1.99996H3.33333C2.59333 1.99996 2 2.59329 2 3.33329V12.6666C2 13.0202 2.14048 13.3594 2.39052 13.6094C2.64057 13.8595 2.97971 14 3.33333 14H12.6667C13.0203 14 13.3594 13.8595 13.6095 13.6094C13.8595 13.3594 14 13.0202 14 12.6666V3.33329C14 2.59329 13.4 1.99996 12.6667 1.99996H12V0.666626H10.6667ZM11.3333 7.99996H8V11.3333H11.3333V7.99996Z" fill="#869AAC"/>
</svg>
