<svg width="128" height="80" viewBox="0 0 128 80" fill="none" xmlns="http://www.w3.org/2000/svg">
<g filter="url(#filter0_d)">
<g filter="url(#filter1_d)">
<circle cx="88" cy="36" r="29.5" fill="url(#paint0_linear)" stroke="#0A2336" stroke-width="5"/>
<path d="M82.4802 40.4499C82.5413 41.346 82.7246 42.1643 83.0285 42.9051C83.3325 43.6457 83.7313 44.2835 84.2266 44.8186C84.7235 45.3539 85.3056 45.7677 85.9746 46.0603C86.6436 46.3528 87.3801 46.499 88.1857 46.499C88.8933 46.499 89.5703 46.4243 90.2216 46.2749C90.8729 46.1257 91.4454 45.8829 91.9407 45.5468C92.436 45.2108 92.8332 44.772 93.1307 44.2305C93.4282 43.6891 93.5761 43.0201 93.5761 42.2236C93.5761 41.5265 93.3638 40.9353 92.9361 40.4499C92.5083 39.9644 91.9471 39.5442 91.254 39.1895C90.5593 38.8348 89.7665 38.5144 88.874 38.228C87.9815 37.9418 87.0745 37.6399 86.1515 37.3225C85.2284 37.0051 84.3199 36.6535 83.4274 36.2677C82.5349 35.8819 81.7421 35.4057 81.049 34.8394C80.3543 34.2731 79.7946 33.5916 79.3669 32.795C78.9391 31.9984 78.7252 31.04 78.7252 29.9197C78.7252 28.7747 78.9488 27.7634 79.3942 26.8858C79.8397 26.0083 80.4684 25.2709 81.2805 24.6734C82.0926 24.076 83.0591 23.6248 84.1799 23.3199C85.3024 23.0149 86.5326 22.8624 87.8705 22.8624C89.0605 22.8624 90.1138 22.9837 91.0305 23.2265C91.9471 23.4691 92.7495 23.7989 93.4378 24.216C94.1245 24.6329 94.705 25.1184 95.1762 25.6723C95.6457 26.2262 96.0333 26.8204 96.3372 27.4553C96.6411 28.0901 96.8663 28.7435 97.0159 29.4156C97.1638 30.0879 97.2635 30.7475 97.3134 31.3947H92.8332C92.7592 30.5608 92.5791 29.8388 92.2945 29.2289C92.0098 28.6191 91.6464 28.115 91.2074 27.7167C90.7667 27.3184 90.2618 27.0228 89.6925 26.8298C89.1217 26.6369 88.5154 26.5405 87.8705 26.5405C87.2884 26.5405 86.7143 26.5996 86.1515 26.7178C85.587 26.8361 85.0821 27.0289 84.6366 27.2966C84.1896 27.5642 83.8278 27.9126 83.548 28.3421C83.2698 28.7714 83.1299 29.2974 83.1299 29.9197C83.1299 30.6417 83.3437 31.2484 83.7715 31.7401C84.1993 32.2318 84.7605 32.6612 85.4536 33.0284C86.1483 33.3955 86.9411 33.7254 87.8336 34.0179C88.7261 34.3104 89.6363 34.6154 90.5657 34.9327C91.4952 35.2501 92.4054 35.6049 93.2979 35.9969C94.1904 36.3891 94.9832 36.862 95.6779 37.4159C96.371 37.9697 96.9322 38.6357 97.36 39.4136C97.7878 40.1916 98 41.1282 98 42.2236C98 43.5554 97.7556 44.7191 97.2667 45.7149C96.7762 46.7106 96.096 47.5414 95.2212 48.2074C94.348 48.8734 93.314 49.3742 92.1176 49.7104C90.9211 50.0463 89.6121 50.2145 88.1857 50.2145C86.9105 50.2145 85.6706 49.9905 84.4694 49.5422C83.2665 49.0942 82.1923 48.4469 81.2435 47.6006C80.2964 46.7542 79.5277 45.7304 78.9391 44.5294C78.3506 43.3281 78.037 41.9684 78 40.4499H82.4802Z" fill="#0A2337" stroke="#152941" stroke-width="0.00621819" stroke-miterlimit="2" stroke-linejoin="round"/>
<path d="M91.1656 47.6328H85.5813V53.3324H91.1656V47.6328Z" fill="#0A2337"/>
<path d="M91.1447 19H85.5604V24.6996H91.1447V19Z" fill="#0A2337"/>
</g>
<circle cx="40" cy="36" r="32" fill="#0A2336"/>
<path d="M44.3514 46.0365C42.8037 46.6647 41.1495 46.9899 39.4789 46.9943C37.7988 46.993 36.1349 46.6672 34.5787 46.0349L26.3916 42.7199L22.3016 44.5385C21.1941 45.032 20.6969 46.3287 21.1912 47.4345C21.4215 47.9501 21.8423 48.3571 22.3657 48.5707L35.1668 54.1494C37.9462 55.2799 41.0576 55.2837 43.8396 54.1597L56.698 48.5948C58.0147 48.0622 58.6498 46.5646 58.1164 45.2498C57.855 44.6054 57.3433 44.0944 56.698 43.8335L53.2826 42.4477L44.3514 46.0365Z" fill="url(#paint1_linear)"/>
<path d="M44.3549 34.7352C42.8076 35.3593 41.1547 35.6809 39.486 35.6826C37.8059 35.6813 36.142 35.3555 34.5858 34.7231L27.2833 31.7665L22.3086 33.9783C21.201 34.4717 20.7039 35.7684 21.1982 36.8742C21.4286 37.3898 21.8493 37.7968 22.3727 38.0103L30.0048 41.1158L35.6439 43.4557C38.0994 44.4559 40.849 44.4595 43.3072 43.466L49.5257 40.9354L56.705 38.0361C58.021 37.5042 58.6558 36.0077 58.123 34.6937C57.8616 34.0488 57.3492 33.5376 56.7033 33.2769L52.3547 31.5206L44.3549 34.7352Z" fill="url(#paint2_linear)"/>
<path d="M36.6778 16.2631L22.3068 22.6439C21.1993 23.1375 20.7022 24.4341 21.1965 25.5399C21.4269 26.0555 21.8476 26.4624 22.371 26.6761L30.9085 30.1487L35.6405 32.1406C38.0961 33.1406 40.8455 33.1443 43.3038 32.1509L48.5665 29.9859L56.6999 26.6951C58.0123 26.1518 58.6351 24.6491 58.0909 23.3387C57.8304 22.711 57.3314 22.2121 56.7033 21.9511L42.3775 16.1644C41.5002 15.8098 40.5717 15.6329 39.644 15.6329C38.632 15.6329 37.6209 15.8434 36.6778 16.2631Z" fill="url(#paint3_linear)"/>
</g>
<defs>
<filter id="filter0_d" x="0" y="0" width="128" height="80" filterUnits="userSpaceOnUse" color-interpolation-filters="sRGB">
<feFlood flood-opacity="0" result="BackgroundImageFix"/>
<feColorMatrix in="SourceAlpha" type="matrix" values="0 0 0 0 0 0 0 0 0 0 0 0 0 0 0 0 0 0 127 0"/>
<feOffset dy="4"/>
<feGaussianBlur stdDeviation="4"/>
<feColorMatrix type="matrix" values="0 0 0 0 0.0823529 0 0 0 0 0.207843 0 0 0 0 0.313726 0 0 0 0.12 0"/>
<feBlend mode="normal" in2="BackgroundImageFix" result="effect1_dropShadow"/>
<feBlend mode="normal" in="SourceGraphic" in2="effect1_dropShadow" result="shape"/>
</filter>
<filter id="filter1_d" x="52" y="4" width="72" height="72" filterUnits="userSpaceOnUse" color-interpolation-filters="sRGB">
<feFlood flood-opacity="0" result="BackgroundImageFix"/>
<feColorMatrix in="SourceAlpha" type="matrix" values="0 0 0 0 0 0 0 0 0 0 0 0 0 0 0 0 0 0 127 0"/>
<feOffset dy="4"/>
<feGaussianBlur stdDeviation="2"/>
<feColorMatrix type="matrix" values="0 0 0 0 0 0 0 0 0 0 0 0 0 0 0 0 0 0 0.05 0"/>
<feBlend mode="normal" in2="BackgroundImageFix" result="effect1_dropShadow"/>
<feBlend mode="normal" in="SourceGraphic" in2="effect1_dropShadow" result="shape"/>
</filter>
<linearGradient id="paint0_linear" x1="56" y1="36" x2="120" y2="36" gradientUnits="userSpaceOnUse">
<stop stop-color="#9ADB83"/>
<stop offset="1" stop-color="#E7F39D"/>
</linearGradient>
<linearGradient id="paint1_linear" x1="39.3059" y1="16.027" x2="39.747" y2="54.7533" gradientUnits="userSpaceOnUse">
<stop stop-color="#B7FDBC"/>
<stop offset="1" stop-color="#FAFD89"/>
</linearGradient>
<linearGradient id="paint2_linear" x1="39.8909" y1="15.0061" x2="39.4498" y2="54.7631" gradientUnits="userSpaceOnUse">
<stop stop-color="#B7FDBC"/>
<stop offset="1" stop-color="#FAFD89"/>
</linearGradient>
<linearGradient id="paint3_linear" x1="39.7118" y1="15.8772" x2="39.4178" y2="54.7507" gradientUnits="userSpaceOnUse">
<stop stop-color="#B7FDBC"/>
<stop offset="1" stop-color="#FAFD89"/>
</linearGradient>
</defs>
</svg>
