<svg width="112" height="64" viewBox="0 0 112 64" fill="none" xmlns="http://www.w3.org/2000/svg">
<path d="M80 64C97.6731 64 112 49.6731 112 32C112 14.3269 97.6731 0 80 0C62.3269 0 48 14.3269 48 32C48 49.6731 62.3269 64 80 64Z" fill="white"/>
<g clip-path="url(#clip0_4707_11774)">
<path d="M81.7649 36.7841C78.8716 35.6406 76.0884 34.3026 73.8336 32.1167C71.783 30.1273 70.7989 27.8519 72.1562 25.0496C72.1782 24.9552 72.1821 24.8576 72.1679 24.7618C72.5333 23.6163 73.4545 22.9162 74.3285 22.2161C77.043 20.0633 80.1817 18.7292 83.4757 17.7277C85.0064 17.2745 86.5662 16.9237 88.1445 16.6775C91.1948 16.1797 93.8523 16.6775 95.7929 19.2912C97.1836 21.236 98.6135 23.134 99.5052 25.3802C101.333 29.8401 101.481 34.802 99.9216 39.3608C99.4993 40.6405 99.1634 40.8349 97.4762 40.8719C96.8104 41.2958 96.0817 41.1539 95.3824 41.0411C90.9788 40.3274 86.7892 38.8649 82.6036 37.3947C82.2775 37.2722 81.9259 37.1536 81.7649 36.7841Z" fill="#5492F6"/>
<path d="M61.257 25.736C65.3523 30.3295 69.0862 35.0357 71.5866 40.5938C73.0145 43.7675 72.8947 47.0677 72.5883 50.4068C72.5294 51.0544 72.1837 51.07 71.7339 50.9222C70.932 50.6384 70.1738 50.2457 69.481 49.7554C63.0483 45.4167 59.8192 39.4075 60.0078 31.6849C60.076 29.6456 60.4986 27.6332 61.257 25.736V25.736Z" fill="#5492F6"/>
<path d="M81.7649 36.784C86.2255 38.4467 90.7274 39.9753 95.4434 40.7726C96.1092 40.8854 96.8026 40.8407 97.4841 40.8679C97.2746 41.3308 97.0638 41.7923 96.8517 42.2526C96.7711 42.8632 96.2467 42.9449 95.7989 43.1122C93.4183 44.0087 91.1733 45.1522 89.1777 46.7352C88.0424 47.6375 87.0171 48.6157 87.129 50.2357C87.1389 50.3777 87.0171 50.4555 86.8973 50.5158C84.8153 51.5173 83.1339 50.7375 81.5822 49.3489C80.3593 48.2793 79.3718 46.9719 78.6812 45.5081C77.3534 42.6357 77.8621 40.2339 80.2329 38.0986C80.7337 37.6552 81.2542 37.2235 81.7649 36.784Z" fill="#0E3CA4"/>
<path d="M95.8009 19.2873C95.5121 19.2581 95.3432 19.0462 95.1802 18.8497C93.6246 16.9711 91.4993 16.5666 89.2523 16.8039C84.9327 17.2619 80.7535 18.5909 76.9724 20.7089C75.1204 21.7367 73.4886 23.1119 72.168 24.7578C70.8933 23.8924 69.7344 22.9259 69.1844 21.4246C69.2198 20.8839 69.7187 20.8411 70.0605 20.6467C71.4452 19.8688 72.8437 19.1162 73.9456 17.9377C74.9277 16.8934 75.5169 15.7985 74.5191 14.4372C80.942 11.5784 89.6746 13.0642 94.75 17.8852C95.1762 18.2918 95.5313 18.7656 95.8009 19.2873V19.2873Z" fill="#0E3CA4"/>
<path d="M74.5191 14.4488C75.5503 15.2403 75.5798 16.3333 74.6429 17.5195C73.5586 18.8925 72.1032 19.7813 70.6085 20.6311C70.1351 20.8995 69.5753 21.02 69.1864 21.4265C67.8959 21.8543 66.6153 22.3152 65.3131 22.7003C64.4587 22.9512 63.5846 23.1904 62.5632 23.0892C63.7381 20.7494 65.3845 18.6725 67.401 16.9867C68.3793 16.1295 69.4637 15.3989 70.6281 14.8125C71.8307 14.2039 73.2228 14.0738 74.5191 14.4488V14.4488Z" fill="#5492F6"/>
<path d="M86.8973 50.5294C86.6872 48.7441 87.7007 47.5987 88.9833 46.5796C91.0869 44.9091 93.4537 43.7248 95.9698 42.8088C96.3109 42.7114 96.6173 42.5206 96.8537 42.2585C97.3428 42.6474 97.8358 41.9512 98.3995 42.3382C97.9281 43.5284 97.1169 44.5513 96.3136 45.5645C94.919 47.3264 93.2121 48.7519 91.3305 49.9965C89.9202 50.9184 88.506 51.4084 86.8973 50.5294Z" fill="#5492F6"/>
</g>
<path d="M32 64C49.6731 64 64 49.6731 64 32C64 14.3269 49.6731 0 32 0C14.3269 0 0 14.3269 0 32C0 49.6731 14.3269 64 32 64Z" fill="#172852"/>
<path d="M25.7759 14.3008C29.5231 12.8992 33.7407 12.896 37.5583 14.048C42.5279 15.5904 46.7231 19.3408 48.9151 24.048C49.5199 25.3888 50.0991 26.7872 50.1567 28.2784C47.3631 26.6592 44.3007 25.6096 41.2319 24.6528C36.3231 22.8832 31.1839 21.6544 26.5375 19.2224C25.4559 18.576 24.0767 17.9136 23.7823 16.5664C23.6639 15.4016 24.8959 14.752 25.7759 14.3008Z" fill="#FFD83D"/>
<path d="M14.464 25.6288C15.5488 22.6848 17.328 19.952 19.744 17.9264C20.3584 22.9792 22.5088 27.8624 26.0608 31.536C30.32 35.9616 36.3872 38.6784 42.56 38.576C45.0112 38.6528 47.408 38.0864 49.7984 37.6288C47.4464 46.128 38.1312 51.7696 29.5008 50.4128C24.2912 49.7472 19.4816 46.6624 16.5792 42.3072C13.3056 37.4944 12.48 31.104 14.464 25.6288Z" fill="#FFD83D"/>
<path d="M41.2319 24.6528C44.3007 25.6096 47.3631 26.6592 50.1567 28.2784L50.3455 28.3776C50.6047 30.3264 50.7935 32.3136 50.4479 34.2656C49.0431 33.6704 47.9039 32.624 46.7135 31.6992C44.4223 29.792 42.0831 27.6096 41.2319 24.6528" fill="#FF6F03"/>
<defs>
<clipPath id="clip0_4707_11774">
<rect width="41" height="38" fill="white" transform="translate(60 13)"/>
</clipPath>
</defs>
</svg>
