<svg width="128" height="80" viewBox="0 0 128 80" fill="none"
  xmlns="http://www.w3.org/2000/svg">
  <g filter="url(#filter0_d)">
    <circle cx="88" cy="36" r="32" fill="white"/>
    <g clip-path="url(#clip0)">
      <path fill-rule="evenodd" clip-rule="evenodd" d="M72.7889 17.2051L64.0368 35.5888C64.0035 35.6572 63.9929 35.7345 64.0067 35.8093C64.0204 35.8841 64.0577 35.9525 64.1131 36.0046L87.7504 58.6548C87.8176 58.7192 87.907 58.7551 88 58.7551C88.093 58.7551 88.1825 58.7192 88.2496 58.6548L111.887 36.006C111.942 35.9539 111.98 35.8855 111.993 35.8107C112.007 35.7359 111.997 35.6586 111.963 35.5903L103.211 17.2065C103.183 17.1448 103.137 17.0924 103.08 17.0558C103.023 17.0192 102.957 16.9998 102.889 17H73.1141C73.0459 16.9992 72.9789 17.0181 72.9212 17.0545C72.8635 17.0909 72.8175 17.1432 72.7889 17.2051Z" fill="#50AF95"/>
      <path fill-rule="evenodd" clip-rule="evenodd" d="M91.0369 37.4767C90.8672 37.4894 89.9904 37.5418 88.0347 37.5418C86.4791 37.5418 85.3747 37.4951 84.9872 37.4767C78.9757 37.2123 74.4886 36.1658 74.4886 34.9129C74.4886 33.6599 78.9757 32.6149 84.9872 32.3462V36.4345C85.3803 36.4628 86.506 36.5292 88.0615 36.5292C89.9282 36.5292 90.8629 36.4515 91.0312 36.4359V32.349C97.03 32.6163 101.507 33.6628 101.507 34.9129C101.507 36.163 97.0314 37.2094 91.0312 37.4753L91.0369 37.4767ZM91.0369 31.9262V28.2679H99.4085V22.6891H76.6155V28.2679H84.9858V31.9248C78.1824 32.2373 73.066 33.585 73.066 35.1999C73.066 36.8149 78.1824 38.1611 84.9858 38.4751V50.1983H91.0354V38.4708C97.8233 38.1583 102.931 36.8121 102.931 35.1985C102.931 33.585 97.8275 32.2387 91.0354 31.9248L91.0369 31.9262Z" fill="white"/>
    </g>
    <path d="M40 68C57.7334 68 72 53.7334 72 36C72 18.2666 57.7334 4 40 4C22.2666 4 8 18.2666 8 36C8 53.7334 22.2666 68 40 68Z" fill="#2775CA"/>
    <path d="M48.8 41.0666C48.8 36.4 46 34.8 40.4 34.1335C36.4 33.6 35.6 32.5335 35.6 30.6666C35.6 28.7997 36.9334 27.6 39.6 27.6C42 27.6 43.3334 28.4 44 30.4C44.1334 30.8 44.5334 31.0666 44.9334 31.0666H47.0666C47.6 31.0666 48 30.6666 48 30.1335V30C47.4666 27.0666 45.0666 24.8 42 24.5335V21.3335C42 20.8 41.6 20.4 40.9334 20.2666H38.9334C38.4 20.2666 38 20.6666 37.8666 21.3335V24.4C33.8666 24.9335 31.3334 27.6 31.3334 30.9335C31.3334 35.3335 34 37.0666 39.6 37.7335C43.3334 38.4 44.5334 39.2 44.5334 41.3335C44.5334 43.4669 42.6666 44.9335 40.1334 44.9335C36.6666 44.9335 35.4666 43.4666 35.0666 41.4666C34.9334 40.9335 34.5334 40.6666 34.1334 40.6666H31.8666C31.3334 40.6666 30.9334 41.0666 30.9334 41.6V41.7335C31.4666 45.0666 33.6 47.4666 38 48.1335V51.3335C38 51.8666 38.4 52.2666 39.0666 52.4H41.0666C41.6 52.4 42 52 42.1334 51.3335V48.1335C46.1334 47.4666 48.8 44.6666 48.8 41.0666Z" fill="white"/>
    <path d="M33.2 55.0665C22.8 51.3334 17.4666 39.7334 21.3334 29.4665C23.3334 23.8665 27.7334 19.5999 33.2 17.5999C33.7335 17.3334 34 16.9334 34 16.2665V14.3999C34 13.8665 33.7335 13.4665 33.2 13.3334C33.0666 13.3334 32.8 13.3334 32.6666 13.4665C20 17.4665 13.0665 30.9334 17.0666 43.5999C19.4666 51.0665 25.2 56.7999 32.6666 59.1999C33.2 59.4665 33.7335 59.1999 33.8666 58.6665C34 58.5334 34 58.3999 34 58.1334V56.2665C34 55.8665 33.6 55.3334 33.2 55.0665ZM47.3335 13.4665C46.8 13.1999 46.2666 13.4665 46.1335 13.9999C46 14.1334 46 14.2665 46 14.5334V16.3999C46 16.9334 46.4 17.4665 46.8 17.7334C57.2 21.4665 62.5335 33.0665 58.6666 43.3334C56.6666 48.9334 52.2666 53.1999 46.8 55.1999C46.2666 55.4665 46 55.8665 46 56.5334V58.3999C46 58.9334 46.2666 59.3334 46.8 59.4665C46.9335 59.4665 47.2 59.4665 47.3335 59.3334C60 55.3334 66.9335 41.8665 62.9335 29.1999C60.5335 21.5999 54.6666 15.8665 47.3335 13.4665Z" fill="white"/>
  </g>
  <defs>
    <filter id="filter0_d" x="0" y="0" width="128" height="80" filterUnits="userSpaceOnUse" color-interpolation-filters="sRGB">
      <feFlood flood-opacity="0" result="BackgroundImageFix"/>
      <feColorMatrix in="SourceAlpha" type="matrix" values="0 0 0 0 0 0 0 0 0 0 0 0 0 0 0 0 0 0 127 0"/>
      <feOffset dy="4"/>
      <feGaussianBlur stdDeviation="4"/>
      <feColorMatrix type="matrix" values="0 0 0 0 0.0823529 0 0 0 0 0.207843 0 0 0 0 0.313726 0 0 0 0.12 0"/>
      <feBlend mode="normal" in2="BackgroundImageFix" result="effect1_dropShadow"/>
      <feBlend mode="normal" in="SourceGraphic" in2="effect1_dropShadow" result="shape"/>
    </filter>
    <clipPath id="clip0">
      <rect width="48" height="41.7552" fill="white" transform="translate(64 17)"/>
    </clipPath>
  </defs>
</svg>
