<svg width="128" height="80" viewBox="0 0 128 80" fill="none"
  xmlns="http://www.w3.org/2000/svg">
  <g filter="url(#filter0_d)">
    <path d="M88 4C105.675 4 120 18.3281 120 36C120 53.6747 105.675 68 88 68C70.3281 68 56 53.6733 56 36C56 18.3281 70.3281 4 88 4Z" fill="#F5AC37"/>
    <path d="M89.1795 38.2596H101.339C101.598 38.2596 101.721 38.2596 101.739 37.9198C101.839 36.6828 101.839 35.4387 101.739 34.2002C101.739 33.9598 101.62 33.8604 101.359 33.8604H77.1597C76.8602 33.8604 76.7796 33.9598 76.7796 34.2406V37.8003C76.7796 38.2596 76.7796 38.2596 77.2591 38.2596H89.1795ZM100.381 29.7002C100.416 29.6095 100.416 29.5101 100.381 29.4208C100.178 28.9788 99.9379 28.5568 99.6585 28.1608C99.238 27.484 98.7426 26.8605 98.1782 26.3003C97.9118 25.9619 97.6036 25.6581 97.258 25.4003C95.5271 23.9272 93.4693 22.8846 91.2575 22.3604C90.1414 22.1099 89.001 21.9904 87.8576 22.0004H77.118C76.8184 22.0004 76.7781 22.12 76.7781 22.3806V29.4799C76.7781 29.7794 76.7781 29.86 77.1583 29.86H100.237C100.237 29.86 100.438 29.8197 100.478 29.7002H100.38H100.381ZM100.381 42.4198C100.042 42.3824 99.6988 42.3824 99.359 42.4198H77.1799C76.8804 42.4198 76.7796 42.4198 76.7796 42.8202V49.761C76.7796 50.0807 76.7796 50.1614 77.1799 50.1614H87.4198C87.9094 50.1988 88.399 50.1642 88.8786 50.062C90.3646 49.9554 91.8263 49.6329 93.2202 49.1015C93.7271 48.9258 94.2167 48.6969 94.6789 48.4218H94.8186C97.2191 47.1733 99.1689 45.212 100.399 42.8043C100.399 42.8043 100.538 42.5019 100.381 42.4227V42.4198ZM72.7605 53.76V53.6404V48.9805V47.4009V42.7006C72.7605 42.44 72.7605 42.4011 72.4408 42.4011H68.1006C67.8601 42.4011 67.7607 42.4011 67.7607 42.0814V38.2812H72.4005C72.6597 38.2812 72.7605 38.2812 72.7605 37.9414V34.1815C72.7605 33.941 72.7605 33.882 72.4408 33.882H68.1006C67.8601 33.882 67.7607 33.882 67.7607 33.5623V30.0429C67.7607 29.8226 67.7607 29.7636 68.0804 29.7636H72.3803C72.6798 29.7636 72.7605 29.7636 72.7605 29.3834V18.6034C72.7605 18.2838 72.7605 18.2031 73.1608 18.2031H88.16C89.2486 18.2463 90.3301 18.3658 91.4 18.5631C93.6047 18.9707 95.7229 19.7583 97.6598 20.883C98.9442 21.639 100.127 22.552 101.179 23.6032C101.971 24.4254 102.685 25.3154 103.319 26.2629C103.948 27.2234 104.471 28.2501 104.881 29.3229C104.932 29.6023 105.2 29.7909 105.479 29.7434H109.059C109.518 29.7434 109.518 29.7434 109.538 30.184V33.4644C109.538 33.7841 109.419 33.8647 109.098 33.8647H106.337C106.058 33.8647 105.977 33.8647 105.997 34.2247C106.107 35.443 106.107 36.6656 105.997 37.8838C105.997 38.2236 105.997 38.264 106.379 38.264H109.537C109.677 38.444 109.537 38.624 109.537 38.8054C109.557 39.0373 109.557 39.272 109.537 39.5038V41.9245C109.537 42.2643 109.438 42.3651 109.137 42.3651H105.357C105.093 42.3147 104.837 42.4832 104.776 42.7453C103.876 45.0853 102.436 47.1834 100.576 48.8654C99.8961 49.4774 99.1819 50.0534 98.4359 50.5847C97.6353 51.0455 96.8562 51.5251 96.0354 51.9052C94.5248 52.5849 92.9408 53.086 91.3151 53.4043C89.7714 53.6808 88.2061 53.806 86.635 53.7844H72.7547V53.7643L72.7605 53.76Z" fill="#FEFEFD"/>
    <circle cx="40" cy="36" r="32" fill="#EDEFF0"/>
    <g clip-path="url(#clip0)">
      <path d="M40.7293 12L40.4076 13.0935V44.8251L40.7293 45.1462L55.4588 36.4397L40.7293 12Z" fill="#343434"/>
      <path d="M40.7294 12L26 36.4397L40.7294 45.1464V29.7448V12Z" fill="#8C8C8C"/>
      <path d="M40.7293 47.9351L40.548 48.1561V59.4596L40.7293 59.9892L55.4675 39.2329L40.7293 47.9351Z" fill="#3C3C3B"/>
      <path d="M40.7294 59.989V47.9349L26 39.2328L40.7294 59.989Z" fill="#8C8C8C"/>
      <path d="M40.7294 45.1462L55.4586 36.4398L40.7294 29.7449V45.1462Z" fill="#141414"/>
      <path d="M26.0001 36.4398L40.7293 45.1462V29.7449L26.0001 36.4398Z" fill="#393939"/>
    </g>
  </g>
  <defs>
    <filter id="filter0_d" x="0" y="0" width="128" height="80" filterUnits="userSpaceOnUse" color-interpolation-filters="sRGB">
      <feFlood flood-opacity="0" result="BackgroundImageFix"/>
      <feColorMatrix in="SourceAlpha" type="matrix" values="0 0 0 0 0 0 0 0 0 0 0 0 0 0 0 0 0 0 127 0"/>
      <feOffset dy="4"/>
      <feGaussianBlur stdDeviation="4"/>
      <feColorMatrix type="matrix" values="0 0 0 0 0.0823529 0 0 0 0 0.207843 0 0 0 0 0.313726 0 0 0 0.12 0"/>
      <feBlend mode="normal" in2="BackgroundImageFix" result="effect1_dropShadow"/>
      <feBlend mode="normal" in="SourceGraphic" in2="effect1_dropShadow" result="shape"/>
    </filter>
    <clipPath id="clip0">
      <rect width="29.4676" height="48" fill="white" transform="translate(26 12)"/>
    </clipPath>
  </defs>
</svg>
