<svg width="128" height="80" viewBox="0 0 128 80" fill="none"
  xmlns="http://www.w3.org/2000/svg">
  <g filter="url(#filter0_d)">
    <g clip-path="url(#clip0)">
      <circle cx="88" cy="36" r="32" fill="white"/>
      <path d="M108.185 17.4315L106.428 19.1888C110.621 23.7743 112.946 29.763 112.946 35.9766C112.946 42.1903 110.621 48.179 106.428 52.7645L108.185 54.5218C112.848 49.4636 115.437 42.8358 115.437 35.9561C115.437 29.0764 112.848 22.4486 108.185 17.3905V17.4315Z" fill="#5A5564"/>
      <path d="M71.2297 17.5837C75.8152 13.3906 81.8039 11.0652 88.0176 11.0652C94.2312 11.0652 100.22 13.3906 104.805 17.5837L106.563 15.8264C101.505 11.1632 94.8768 8.57422 87.9971 8.57422C81.1174 8.57422 74.4896 11.1632 69.4315 15.8264L71.2297 17.5837Z" fill="#5A5564"/>
      <path d="M69.5838 52.7819C65.3956 48.1975 63.0733 42.2124 63.0733 36.0029C63.0733 29.7934 65.3956 23.8083 69.5838 19.2238L67.8265 17.4666C63.1633 22.5247 60.5743 29.1525 60.5743 36.0322C60.5743 42.9119 63.1633 49.5397 67.8265 54.5978L69.5838 52.7819Z" fill="#5A5564"/>
      <path d="M104.782 54.4045C100.196 58.5977 94.2078 60.923 87.9941 60.923C81.7805 60.923 75.7918 58.5977 71.2063 54.4045L69.449 56.1618C74.5071 60.825 81.1349 63.414 88.0146 63.414C94.8943 63.414 101.522 60.825 106.58 56.1618L104.782 54.4045Z" fill="#5A5564"/>
      <path d="M99.0943 30.1365C98.7428 26.4696 95.5797 25.2396 91.579 24.8647V19.8154H88.4862V24.7709C87.672 24.7709 86.8402 24.7709 86.0143 24.7709V19.8154H82.9449V24.8998H76.6714V28.2094C76.6714 28.2094 78.9559 28.1683 78.9207 28.2094C79.3326 28.164 79.746 28.2804 80.0739 28.5339C80.4017 28.7874 80.6183 29.1583 80.678 29.5683V43.4859C80.6692 43.6306 80.6315 43.7719 80.5671 43.9017C80.5027 44.0315 80.4129 44.1471 80.3031 44.2416C80.1954 44.3379 80.0692 44.4114 79.9323 44.4577C79.7954 44.504 79.6506 44.5221 79.5065 44.511C79.5475 44.5462 77.2572 44.511 77.2572 44.511L76.6714 48.2072H82.8863V53.3735H85.9791V48.2833H88.451V53.3501H91.5497V48.2423C96.7747 47.926 100.418 46.6373 100.875 41.7462C101.244 37.8099 99.393 36.0527 96.4349 35.3439C98.2332 34.4594 99.3461 32.8193 99.0943 30.1365ZM94.7596 41.137C94.7596 44.9796 88.1757 44.5403 86.0787 44.5403V37.7221C88.1757 37.7279 94.7596 37.1246 94.7596 41.137ZM93.3245 31.5306C93.3245 35.0452 87.8301 34.6176 86.0846 34.6176V28.4202C87.8301 28.4202 93.3245 27.8696 93.3245 31.5306Z" fill="#F09242"/>
      <path d="M87.9941 68C81.6656 67.9989 75.4796 66.1213 70.2181 62.6046C64.9566 59.088 60.856 54.0902 58.4347 48.2432C56.0134 42.3962 55.3802 35.9625 56.6151 29.7557C57.8501 23.5488 60.8976 17.8475 65.3726 13.3726C69.8475 8.89767 75.5488 5.85009 81.7557 4.61517C87.9625 3.38026 94.3962 4.01347 100.243 6.43475C106.09 8.85603 111.088 12.9566 114.605 18.2181C118.121 23.4796 119.999 29.6657 120 35.9942C120.001 40.1974 119.173 44.3597 117.565 48.2432C115.957 52.1267 113.6 55.6553 110.627 58.6274C107.655 61.5996 104.127 63.9571 100.243 65.5653C96.3597 67.1735 92.1974 68.0008 87.9941 68ZM87.9941 6.49535C82.1636 6.49998 76.4654 8.23301 71.6196 11.4754C66.7738 14.7178 62.998 19.324 60.7694 24.7117C58.5409 30.0995 57.9596 36.0271 59.0991 41.7451C60.2385 47.4632 63.0476 52.7151 67.1712 56.8371C71.2948 60.9591 76.5478 63.766 82.2663 64.9032C87.9849 66.0404 93.9122 65.4568 99.2991 63.2261C104.686 60.9954 109.291 57.2178 112.531 52.3707C115.772 47.5236 117.502 41.8247 117.505 35.9942C117.506 32.1189 116.744 28.2813 115.261 24.7009C113.779 21.1205 111.605 17.8674 108.864 15.1278C106.123 12.3881 102.869 10.2155 99.2883 8.73431C95.7072 7.25309 91.8694 6.49227 87.9941 6.49535Z" fill="#282138"/>
    </g>
    <circle cx="40" cy="36" r="32" fill="#EDEFF0"/>
    <g clip-path="url(#clip1)">
      <path d="M40.7293 12L40.4076 13.0935V44.8251L40.7293 45.1462L55.4588 36.4397L40.7293 12Z" fill="#343434"/>
      <path d="M40.7294 12L26 36.4397L40.7294 45.1464V29.7448V12Z" fill="#8C8C8C"/>
      <path d="M40.7293 47.9351L40.548 48.1561V59.4596L40.7293 59.9892L55.4675 39.2329L40.7293 47.9351Z" fill="#3C3C3B"/>
      <path d="M40.7294 59.989V47.9349L26 39.2328L40.7294 59.989Z" fill="#8C8C8C"/>
      <path d="M40.7294 45.1462L55.4586 36.4398L40.7294 29.7449V45.1462Z" fill="#141414"/>
      <path d="M26.0001 36.4398L40.7293 45.1462V29.7449L26.0001 36.4398Z" fill="#393939"/>
    </g>
  </g>
  <defs>
    <filter id="filter0_d" x="0" y="0" width="128" height="80" filterUnits="userSpaceOnUse" color-interpolation-filters="sRGB">
      <feFlood flood-opacity="0" result="BackgroundImageFix"/>
      <feColorMatrix in="SourceAlpha" type="matrix" values="0 0 0 0 0 0 0 0 0 0 0 0 0 0 0 0 0 0 127 0"/>
      <feOffset dy="4"/>
      <feGaussianBlur stdDeviation="4"/>
      <feColorMatrix type="matrix" values="0 0 0 0 0.0823529 0 0 0 0 0.207843 0 0 0 0 0.313726 0 0 0 0.12 0"/>
      <feBlend mode="normal" in2="BackgroundImageFix" result="effect1_dropShadow"/>
      <feBlend mode="normal" in="SourceGraphic" in2="effect1_dropShadow" result="shape"/>
    </filter>
    <clipPath id="clip0">
      <rect width="64" height="64" fill="white" transform="translate(56 4)"/>
    </clipPath>
    <clipPath id="clip1">
      <rect width="29.4676" height="48" fill="white" transform="translate(26 12)"/>
    </clipPath>
  </defs>
</svg>
