<svg width="128" height="80" viewBox="0 0 128 80" fill="none" xmlns="http://www.w3.org/2000/svg">
<g filter="url(#filter0_d)">
<circle cx="88" cy="36" r="32" fill="#0A2336"/>
<path d="M92.3514 46.0365C90.8037 46.6647 89.1495 46.9899 87.4789 46.9943C85.7988 46.993 84.1349 46.6672 82.5787 46.0349L74.3916 42.7199L70.3016 44.5385C69.1941 45.032 68.6969 46.3287 69.1912 47.4345C69.4215 47.9501 69.8423 48.3571 70.3657 48.5707L83.1668 54.1494C85.9462 55.2799 89.0576 55.2837 91.8396 54.1597L104.698 48.5948C106.015 48.0622 106.65 46.5646 106.116 45.2498C105.855 44.6054 105.343 44.0944 104.698 43.8335L101.283 42.4477L92.3514 46.0365Z" fill="url(#paint0_linear)"/>
<path d="M92.3549 34.7352C90.8076 35.3593 89.1547 35.6809 87.486 35.6826C85.8059 35.6813 84.142 35.3555 82.5858 34.7231L75.2833 31.7665L70.3086 33.9783C69.2011 34.4717 68.7039 35.7684 69.1982 36.8742C69.4286 37.3898 69.8493 37.7968 70.3727 38.0103L78.0048 41.1158L83.6439 43.4557C86.0995 44.4559 88.849 44.4595 91.3072 43.466L97.5257 40.9354L104.705 38.0361C106.021 37.5042 106.656 36.0077 106.123 34.6937C105.862 34.0488 105.349 33.5376 104.703 33.2769L100.355 31.5206L92.3549 34.7352Z" fill="url(#paint1_linear)"/>
<path d="M84.6778 16.2631L70.3068 22.6439C69.1993 23.1375 68.7022 24.4341 69.1964 25.5399C69.4268 26.0555 69.8476 26.4624 70.371 26.6761L78.9085 30.1487L83.6405 32.1406C86.0961 33.1406 88.8455 33.1443 91.3038 32.1509L96.5665 29.9859L104.7 26.6951C106.012 26.1518 106.635 24.6491 106.091 23.3387C105.83 22.711 105.331 22.2121 104.703 21.9511L90.3775 16.1644C89.5002 15.8098 88.5717 15.6329 87.644 15.6329C86.632 15.6329 85.6208 15.8434 84.6778 16.2631Z" fill="url(#paint2_linear)"/>
<path d="M40 68C57.7334 68 72 53.7334 72 36C72 18.2666 57.7334 4 40 4C22.2666 4 8 18.2666 8 36C8 53.7334 22.2666 68 40 68Z" fill="#2775CA"/>
<path d="M48.8 41.0666C48.8 36.4 46 34.8 40.4 34.1335C36.4 33.6 35.6 32.5335 35.6 30.6666C35.6 28.7997 36.9334 27.6 39.6 27.6C42 27.6 43.3334 28.4 44 30.4C44.1334 30.8 44.5334 31.0666 44.9334 31.0666H47.0665C47.6 31.0666 48 30.6666 48 30.1335V30C47.4665 27.0666 45.0665 24.8 42 24.5335V21.3335C42 20.8 41.6 20.4 40.9334 20.2666H38.9334C38.4 20.2666 38 20.6666 37.8665 21.3335V24.4C33.8665 24.9335 31.3334 27.6 31.3334 30.9335C31.3334 35.3335 34 37.0666 39.6 37.7335C43.3334 38.4 44.5334 39.2 44.5334 41.3335C44.5334 43.4669 42.6665 44.9335 40.1334 44.9335C36.6665 44.9335 35.4665 43.4666 35.0665 41.4666C34.9334 40.9335 34.5334 40.6666 34.1334 40.6666H31.8665C31.3334 40.6666 30.9334 41.0666 30.9334 41.6V41.7335C31.4665 45.0666 33.6 47.4666 38 48.1335V51.3335C38 51.8666 38.4 52.2666 39.0665 52.4H41.0665C41.6 52.4 42 52 42.1334 51.3335V48.1335C46.1334 47.4666 48.8 44.6666 48.8 41.0666Z" fill="white"/>
<path d="M33.2 55.0665C22.8 51.3334 17.4665 39.7334 21.3334 29.4665C23.3334 23.8665 27.7334 19.5999 33.2 17.5999C33.7334 17.3334 34 16.9334 34 16.2665V14.3999C34 13.8665 33.7334 13.4665 33.2 13.3334C33.0666 13.3334 32.8 13.3334 32.6666 13.4665C20 17.4665 13.0665 30.9334 17.0665 43.5999C19.4665 51.0665 25.2 56.7999 32.6666 59.1999C33.2 59.4665 33.7334 59.1999 33.8666 58.6665C34 58.5334 34 58.3999 34 58.1334V56.2665C34 55.8665 33.6 55.3334 33.2 55.0665ZM47.3335 13.4665C46.8 13.1999 46.2666 13.4665 46.1335 13.9999C46 14.1334 46 14.2665 46 14.5334V16.3999C46 16.9334 46.4 17.4665 46.8 17.7334C57.2 21.4665 62.5335 33.0665 58.6666 43.3334C56.6666 48.9334 52.2666 53.1999 46.8 55.1999C46.2666 55.4665 46 55.8665 46 56.5334V58.3999C46 58.9334 46.2666 59.3334 46.8 59.4665C46.9335 59.4665 47.2 59.4665 47.3335 59.3334C60 55.3334 66.9335 41.8665 62.9335 29.1999C60.5335 21.5999 54.6666 15.8665 47.3335 13.4665Z" fill="white"/>
</g>
<defs>
<filter id="filter0_d" x="0" y="0" width="128" height="80" filterUnits="userSpaceOnUse" color-interpolation-filters="sRGB">
<feFlood flood-opacity="0" result="BackgroundImageFix"/>
<feColorMatrix in="SourceAlpha" type="matrix" values="0 0 0 0 0 0 0 0 0 0 0 0 0 0 0 0 0 0 127 0"/>
<feOffset dy="4"/>
<feGaussianBlur stdDeviation="4"/>
<feColorMatrix type="matrix" values="0 0 0 0 0.0823529 0 0 0 0 0.207843 0 0 0 0 0.313726 0 0 0 0.12 0"/>
<feBlend mode="normal" in2="BackgroundImageFix" result="effect1_dropShadow"/>
<feBlend mode="normal" in="SourceGraphic" in2="effect1_dropShadow" result="shape"/>
</filter>
<linearGradient id="paint0_linear" x1="87.3059" y1="16.027" x2="87.747" y2="54.7533" gradientUnits="userSpaceOnUse">
<stop stop-color="#B7FDBC"/>
<stop offset="1" stop-color="#FAFD89"/>
</linearGradient>
<linearGradient id="paint1_linear" x1="87.8909" y1="15.0061" x2="87.4498" y2="54.7631" gradientUnits="userSpaceOnUse">
<stop stop-color="#B7FDBC"/>
<stop offset="1" stop-color="#FAFD89"/>
</linearGradient>
<linearGradient id="paint2_linear" x1="87.7118" y1="15.8772" x2="87.4178" y2="54.7507" gradientUnits="userSpaceOnUse">
<stop stop-color="#B7FDBC"/>
<stop offset="1" stop-color="#FAFD89"/>
</linearGradient>
</defs>
</svg>
