<svg width="112" height="64" viewBox="0 0 112 64" fill="none" xmlns="http://www.w3.org/2000/svg">
<path d="M80 64C97.6731 64 112 49.6731 112 32C112 14.3269 97.6731 0 80 0C62.3269 0 48 14.3269 48 32C48 49.6731 62.3269 64 80 64Z" fill="white"/>
<g clip-path="url(#clip0_4707_11773)">
<path d="M81.7649 36.7841C78.8716 35.6406 76.0884 34.3026 73.8336 32.1167C71.783 30.1273 70.7989 27.8519 72.1562 25.0496C72.1782 24.9552 72.1821 24.8576 72.1679 24.7618C72.5333 23.6163 73.4545 22.9162 74.3285 22.2161C77.043 20.0633 80.1817 18.7292 83.4757 17.7277C85.0064 17.2745 86.5662 16.9237 88.1445 16.6775C91.1948 16.1797 93.8523 16.6775 95.7929 19.2912C97.1836 21.236 98.6135 23.134 99.5052 25.3802C101.333 29.8401 101.481 34.802 99.9216 39.3608C99.4993 40.6405 99.1634 40.8349 97.4762 40.8719C96.8104 41.2958 96.0817 41.1539 95.3824 41.0411C90.9788 40.3274 86.7892 38.8649 82.6036 37.3947C82.2775 37.2722 81.9259 37.1536 81.7649 36.7841Z" fill="#5492F6"/>
<path d="M61.257 25.736C65.3523 30.3295 69.0862 35.0357 71.5866 40.5938C73.0145 43.7675 72.8947 47.0677 72.5883 50.4068C72.5294 51.0544 72.1837 51.07 71.7339 50.9222C70.932 50.6384 70.1738 50.2457 69.481 49.7554C63.0483 45.4167 59.8192 39.4075 60.0078 31.6849C60.076 29.6456 60.4986 27.6332 61.257 25.736V25.736Z" fill="#5492F6"/>
<path d="M81.7649 36.784C86.2255 38.4467 90.7274 39.9753 95.4434 40.7726C96.1092 40.8854 96.8026 40.8407 97.4841 40.8679C97.2746 41.3308 97.0638 41.7923 96.8517 42.2526C96.7711 42.8632 96.2467 42.9449 95.7989 43.1122C93.4183 44.0087 91.1733 45.1522 89.1777 46.7352C88.0424 47.6375 87.0171 48.6157 87.129 50.2357C87.1389 50.3777 87.0171 50.4555 86.8973 50.5158C84.8153 51.5173 83.1339 50.7375 81.5822 49.3489C80.3593 48.2793 79.3718 46.9719 78.6812 45.5081C77.3534 42.6357 77.8621 40.2339 80.2329 38.0986C80.7337 37.6552 81.2542 37.2235 81.7649 36.784Z" fill="#0E3CA4"/>
<path d="M95.8009 19.2873C95.5121 19.2581 95.3432 19.0462 95.1802 18.8497C93.6246 16.9711 91.4993 16.5666 89.2523 16.8039C84.9327 17.2619 80.7535 18.5909 76.9724 20.7089C75.1204 21.7367 73.4886 23.1119 72.168 24.7578C70.8933 23.8924 69.7344 22.9259 69.1844 21.4246C69.2198 20.8839 69.7187 20.8411 70.0605 20.6467C71.4452 19.8688 72.8437 19.1162 73.9456 17.9377C74.9277 16.8934 75.5169 15.7985 74.5191 14.4372C80.942 11.5784 89.6746 13.0642 94.75 17.8852C95.1762 18.2918 95.5313 18.7656 95.8009 19.2873V19.2873Z" fill="#0E3CA4"/>
<path d="M74.5191 14.4488C75.5503 15.2403 75.5798 16.3333 74.6429 17.5195C73.5586 18.8925 72.1032 19.7813 70.6085 20.6311C70.1351 20.8995 69.5753 21.02 69.1864 21.4265C67.8959 21.8543 66.6153 22.3152 65.3131 22.7003C64.4587 22.9512 63.5846 23.1904 62.5632 23.0892C63.7381 20.7494 65.3845 18.6725 67.401 16.9867C68.3793 16.1295 69.4637 15.3989 70.6281 14.8125C71.8307 14.2039 73.2228 14.0738 74.5191 14.4488V14.4488Z" fill="#5492F6"/>
<path d="M86.8973 50.5294C86.6872 48.7441 87.7007 47.5987 88.9833 46.5796C91.0869 44.9091 93.4537 43.7248 95.9698 42.8088C96.3109 42.7114 96.6173 42.5206 96.8537 42.2585C97.3428 42.6474 97.8358 41.9512 98.3995 42.3382C97.9281 43.5284 97.1169 44.5513 96.3136 45.5645C94.919 47.3264 93.2121 48.7519 91.3305 49.9965C89.9202 50.9184 88.506 51.4084 86.8973 50.5294Z" fill="#5492F6"/>
</g>
<circle cx="32" cy="32" r="32" fill="#0A2336"/>
<path d="M36.3514 42.0365C34.8037 42.6647 33.1495 42.9899 31.4789 42.9943C29.7988 42.993 28.1349 42.6672 26.5787 42.0349L18.3916 38.7199L14.3016 40.5385C13.1941 41.032 12.6969 42.3287 13.1912 43.4345C13.4215 43.9501 13.8423 44.3571 14.3657 44.5707L27.1668 50.1494C29.9462 51.2799 33.0576 51.2837 35.8396 50.1597L48.698 44.5948C50.0147 44.0622 50.6498 42.5646 50.1164 41.2498C49.855 40.6054 49.3433 40.0944 48.698 39.8335L45.2826 38.4477L36.3514 42.0365Z" fill="url(#paint0_linear_4707_11773)"/>
<path d="M36.3549 30.7352C34.8076 31.3593 33.1547 31.6809 31.4859 31.6826C29.8059 31.6813 28.1419 31.3555 26.5858 30.7231L19.2832 27.7665L14.3085 29.9783C13.201 30.4717 12.7039 31.7684 13.1982 32.8742C13.4285 33.3898 13.8493 33.7968 14.3727 34.0103L22.0048 37.1158L27.6438 39.4557C30.0994 40.4559 32.8489 40.4595 35.3072 39.466L41.5256 36.9354L48.705 34.0361C50.0209 33.5042 50.6558 32.0077 50.123 30.6937C49.8616 30.0488 49.3492 29.5376 48.7033 29.2769L44.3547 27.5206L36.3549 30.7352Z" fill="url(#paint1_linear_4707_11773)"/>
<path d="M28.6778 12.2631L14.3068 18.6438C13.1993 19.1374 12.7022 20.434 13.1964 21.5399C13.4268 22.0554 13.8476 22.4623 14.371 22.676L22.9085 26.1486L27.6405 28.1405C30.0961 29.1406 32.8455 29.1443 35.3038 28.1509L40.5665 25.9859L48.6999 22.695C50.0123 22.1518 50.6351 20.649 50.0909 19.3386C49.8304 18.711 49.3314 18.212 48.7033 17.951L34.3775 12.1643C33.5002 11.8097 32.5717 11.6329 31.644 11.6329C30.632 11.6329 29.6208 11.8433 28.6778 12.2631" fill="url(#paint2_linear_4707_11773)"/>
<defs>
<linearGradient id="paint0_linear_4707_11773" x1="31.3059" y1="12.027" x2="31.747" y2="50.7533" gradientUnits="userSpaceOnUse">
<stop stop-color="#B7FDBC"/>
<stop offset="1" stop-color="#FAFD89"/>
</linearGradient>
<linearGradient id="paint1_linear_4707_11773" x1="31.8909" y1="11.0061" x2="31.4498" y2="50.7631" gradientUnits="userSpaceOnUse">
<stop stop-color="#B7FDBC"/>
<stop offset="1" stop-color="#FAFD89"/>
</linearGradient>
<linearGradient id="paint2_linear_4707_11773" x1="31.7118" y1="11.8771" x2="31.4178" y2="50.7506" gradientUnits="userSpaceOnUse">
<stop stop-color="#B7FDBC"/>
<stop offset="1" stop-color="#FAFD89"/>
</linearGradient>
<clipPath id="clip0_4707_11773">
<rect width="41" height="38" fill="white" transform="translate(60 13)"/>
</clipPath>
</defs>
</svg>
