<svg width="128" height="80" viewBox="0 0 128 80" fill="none"
  xmlns="http://www.w3.org/2000/svg">
  <g filter="url(#filter0_d)">
    <circle cx="88" cy="36" r="32" fill="white"/>
    <g clip-path="url(#clip0)">
      <path fill-rule="evenodd" clip-rule="evenodd" d="M72.7889 17.2051L64.0368 35.5888C64.0035 35.6572 63.9929 35.7345 64.0067 35.8093C64.0204 35.8841 64.0577 35.9525 64.1131 36.0046L87.7504 58.6548C87.8176 58.7192 87.907 58.7551 88 58.7551C88.093 58.7551 88.1825 58.7192 88.2496 58.6548L111.887 36.006C111.942 35.9539 111.98 35.8855 111.993 35.8107C112.007 35.7359 111.997 35.6586 111.963 35.5903L103.211 17.2065C103.183 17.1448 103.137 17.0924 103.08 17.0558C103.023 17.0192 102.957 16.9998 102.889 17H73.1141C73.0459 16.9992 72.9789 17.0181 72.9212 17.0545C72.8635 17.0909 72.8175 17.1432 72.7889 17.2051Z" fill="#50AF95"/>
      <path fill-rule="evenodd" clip-rule="evenodd" d="M91.0369 37.4767C90.8672 37.4894 89.9904 37.5418 88.0347 37.5418C86.4791 37.5418 85.3747 37.4951 84.9872 37.4767C78.9757 37.2123 74.4886 36.1658 74.4886 34.9129C74.4886 33.6599 78.9757 32.6149 84.9872 32.3462V36.4345C85.3803 36.4628 86.506 36.5292 88.0615 36.5292C89.9282 36.5292 90.8629 36.4515 91.0312 36.4359V32.349C97.03 32.6163 101.507 33.6628 101.507 34.9129C101.507 36.163 97.0314 37.2094 91.0312 37.4753L91.0369 37.4767ZM91.0369 31.9262V28.2679H99.4085V22.6891H76.6155V28.2679H84.9858V31.9248C78.1824 32.2373 73.066 33.585 73.066 35.1999C73.066 36.8149 78.1824 38.1611 84.9858 38.4751V50.1983H91.0354V38.4708C97.8233 38.1583 102.931 36.8121 102.931 35.1985C102.931 33.585 97.8275 32.2387 91.0354 31.9248L91.0369 31.9262Z" fill="white"/>
    </g>
    <path d="M40 4C57.6747 4 72 18.3281 72 36C72 53.6747 57.6747 68 40 68C22.3281 68 8 53.6733 8 36C8 18.3281 22.3281 4 40 4Z" fill="#F5AC37"/>
    <path d="M41.1795 38.2596H53.339C53.5982 38.2596 53.7206 38.2596 53.7393 37.9198C53.8387 36.6828 53.8387 35.4387 53.7393 34.2002C53.7393 33.9598 53.6198 33.8604 53.3592 33.8604H29.1597C28.8602 33.8604 28.7796 33.9598 28.7796 34.2406V37.8003C28.7796 38.2596 28.7796 38.2596 29.2591 38.2596H41.1795ZM52.3814 29.7002C52.4159 29.6095 52.4159 29.5101 52.3814 29.4208C52.1783 28.9788 51.9379 28.5568 51.6585 28.1608C51.238 27.484 50.7426 26.8605 50.1782 26.3003C49.9118 25.9619 49.6036 25.6581 49.258 25.4003C47.5271 23.9272 45.4693 22.8846 43.2575 22.3604C42.1414 22.1099 41.001 21.9904 39.8576 22.0004H29.118C28.8184 22.0004 28.7781 22.12 28.7781 22.3806V29.4799C28.7781 29.7794 28.7781 29.86 29.1583 29.86H52.2374C52.2374 29.86 52.4375 29.8197 52.4779 29.7002H52.3799H52.3814ZM52.3814 42.4198C52.0415 42.3824 51.6988 42.3824 51.359 42.4198H29.1799C28.8804 42.4198 28.7796 42.4198 28.7796 42.8202V49.761C28.7796 50.0807 28.7796 50.1614 29.1799 50.1614H39.4198C39.9094 50.1988 40.399 50.1642 40.8786 50.062C42.3646 49.9554 43.8263 49.6329 45.2202 49.1015C45.7271 48.9258 46.2167 48.6969 46.6789 48.4218H46.8186C49.2191 47.1733 51.1689 45.212 52.3987 42.8043C52.3987 42.8043 52.5383 42.5019 52.3814 42.4227V42.4198ZM24.7605 53.76V53.6404V48.9805V47.4009V42.7006C24.7605 42.44 24.7605 42.4011 24.4408 42.4011H20.1006C19.8601 42.4011 19.7607 42.4011 19.7607 42.0814V38.2812H24.4005C24.6597 38.2812 24.7605 38.2812 24.7605 37.9414V34.1815C24.7605 33.941 24.7605 33.882 24.4408 33.882H20.1006C19.8601 33.882 19.7607 33.882 19.7607 33.5623V30.0429C19.7607 29.8226 19.7607 29.7636 20.0804 29.7636H24.3803C24.6798 29.7636 24.7605 29.7636 24.7605 29.3834V18.6034C24.7605 18.2838 24.7605 18.2031 25.1608 18.2031H40.16C41.2486 18.2463 42.3301 18.3658 43.4 18.5631C45.6047 18.9707 47.7229 19.7583 49.6598 20.883C50.9442 21.639 52.1265 22.552 53.1792 23.6032C53.9712 24.4254 54.6854 25.3154 55.319 26.2629C55.9483 27.2234 56.471 28.2501 56.8814 29.3229C56.9318 29.6023 57.1997 29.7909 57.479 29.7434H61.0589C61.5183 29.7434 61.5183 29.7434 61.5384 30.184V33.4644C61.5384 33.7841 61.4189 33.8647 61.0978 33.8647H58.3373C58.0579 33.8647 57.9773 33.8647 57.9974 34.2247C58.1069 35.443 58.1069 36.6656 57.9974 37.8838C57.9974 38.2236 57.9974 38.264 58.379 38.264H61.537C61.6767 38.444 61.537 38.624 61.537 38.8054C61.5572 39.0373 61.5572 39.272 61.537 39.5038V41.9245C61.537 42.2643 61.4376 42.3651 61.1367 42.3651H57.3566C57.0931 42.3147 56.8368 42.4832 56.7763 42.7453C55.8763 45.0853 54.4363 47.1834 52.5758 48.8654C51.8961 49.4774 51.1819 50.0534 50.4359 50.5847C49.6353 51.0455 48.8562 51.5251 48.0354 51.9052C46.5248 52.5849 44.9408 53.086 43.3151 53.4043C41.7714 53.6808 40.2061 53.806 38.635 53.7844H24.7547V53.7643L24.7605 53.76Z" fill="#FEFEFD"/>
  </g>
  <defs>
    <filter id="filter0_d" x="0" y="0" width="128" height="80" filterUnits="userSpaceOnUse" color-interpolation-filters="sRGB">
      <feFlood flood-opacity="0" result="BackgroundImageFix"/>
      <feColorMatrix in="SourceAlpha" type="matrix" values="0 0 0 0 0 0 0 0 0 0 0 0 0 0 0 0 0 0 127 0"/>
      <feOffset dy="4"/>
      <feGaussianBlur stdDeviation="4"/>
      <feColorMatrix type="matrix" values="0 0 0 0 0.0823529 0 0 0 0 0.207843 0 0 0 0 0.313726 0 0 0 0.12 0"/>
      <feBlend mode="normal" in2="BackgroundImageFix" result="effect1_dropShadow"/>
      <feBlend mode="normal" in="SourceGraphic" in2="effect1_dropShadow" result="shape"/>
    </filter>
    <clipPath id="clip0">
      <rect width="48" height="41.7552" fill="white" transform="translate(64 17)"/>
    </clipPath>
  </defs>
</svg>
