<svg width="120" height="80" viewBox="0 0 120 80" fill="none" xmlns="http://www.w3.org/2000/svg">
<g clip-path="url(#clip0_3165_12124)">
<path d="M88.0435 4C105.963 4.05654 120.408 18.7373 119.993 36.7727C119.597 54.1547 105.215 68.402 87.233 67.9937C69.9984 67.598 55.9744 53.5265 55.9995 35.9623C56.031 18.1657 70.4382 4.00628 88.0435 4Z" fill="#00AEFD"/>
<path d="M68.8741 49.2924C69.2763 48.903 69.6281 48.57 69.9674 48.2245C71.557 46.6478 73.1341 45.0585 74.7175 43.4817C74.8368 43.3623 74.906 43.2744 74.8117 43.0859C70.7717 34.6933 74.8997 24.9187 83.7589 22.0102C87.5916 20.7475 91.3615 21.0553 95.012 22.7828C95.2319 22.8896 95.3513 22.8708 95.5146 22.6949C96.0613 22.1232 96.633 21.5704 97.1922 21.0051C97.2407 20.9515 97.2998 20.9087 97.3658 20.8795C97.4319 20.8503 97.5033 20.8353 97.5755 20.8355H103.903C103.896 20.9548 103.808 20.9925 103.758 21.049C101.186 23.6162 98.6206 26.1834 96.0613 28.7506C95.8665 28.9454 95.766 28.9642 95.5523 28.7695C93.3155 26.6965 90.6641 25.7542 87.6293 25.9615C82.7473 26.2944 78.6821 30.1075 78.0287 34.932C77.2684 40.5041 80.9315 45.6552 86.4795 46.6855C92.128 47.7345 97.1797 44.1601 98.5431 39.0404C98.6122 38.764 98.5305 38.7389 98.2918 38.7389C94.3585 38.7472 90.4253 38.7472 86.4921 38.7389H86.1528C86.1213 38.6195 86.2219 38.5818 86.2721 38.5316C87.6921 37.1118 89.11 35.69 90.5258 34.2662C90.5958 34.191 90.682 34.1328 90.7777 34.0958C90.8735 34.0588 90.9764 34.044 91.0787 34.0526C95.0497 34.0526 99.0269 34.0588 103.004 34.0463C103.293 34.0463 103.387 34.128 103.425 34.4106C104.229 40.3973 101.289 46.4216 96.0613 49.4558C93.2339 51.1016 90.1928 51.7864 86.9382 51.4723C83.4699 51.133 80.4665 49.7322 77.9407 47.3325C77.7396 47.144 77.6454 47.144 77.4569 47.3388C76.8789 47.9418 76.2757 48.5261 75.6851 49.1228C75.5783 49.2234 75.484 49.305 75.3144 49.305H69.0689L68.8741 49.2924Z" fill="#FEFEFE"/>
</g>
<g filter="url(#filter0_d_3165_12124)">
<circle cx="40" cy="36" r="32" fill="#0A2336"/>
<path d="M44.3514 46.0365C42.8037 46.6647 41.1495 46.9899 39.4789 46.9943C37.7988 46.993 36.1349 46.6672 34.5787 46.0349L26.3916 42.7199L22.3016 44.5385C21.1941 45.032 20.6969 46.3287 21.1912 47.4345C21.4215 47.9501 21.8423 48.3571 22.3657 48.5707L35.1668 54.1494C37.9462 55.2799 41.0576 55.2837 43.8396 54.1597L56.698 48.5948C58.0147 48.0622 58.6498 46.5646 58.1164 45.2498C57.855 44.6054 57.3433 44.0944 56.698 43.8335L53.2826 42.4477L44.3514 46.0365Z" fill="url(#paint0_linear_3165_12124)"/>
<path d="M44.3549 34.7352C42.8076 35.3593 41.1547 35.6809 39.4859 35.6826C37.8059 35.6813 36.1419 35.3555 34.5858 34.7231L27.2832 31.7665L22.3085 33.9783C21.201 34.4717 20.7039 35.7684 21.1982 36.8742C21.4285 37.3898 21.8493 37.7968 22.3727 38.0103L30.0048 41.1158L35.6438 43.4557C38.0994 44.4559 40.8489 44.4595 43.3072 43.466L49.5256 40.9354L56.705 38.0361C58.0209 37.5042 58.6558 36.0077 58.123 34.6937C57.8616 34.0488 57.3492 33.5376 56.7033 33.2769L52.3547 31.5206L44.3549 34.7352Z" fill="url(#paint1_linear_3165_12124)"/>
<path d="M36.6778 16.2631L22.3068 22.6439C21.1993 23.1375 20.7022 24.4341 21.1964 25.5399C21.4268 26.0555 21.8476 26.4624 22.371 26.6761L30.9085 30.1487L35.6405 32.1406C38.0961 33.1406 40.8455 33.1443 43.3038 32.1509L48.5665 29.9859L56.6999 26.6951C58.0123 26.1518 58.6351 24.6491 58.0909 23.3387C57.8304 22.711 57.3314 22.2121 56.7033 21.9511L42.3775 16.1644C41.5002 15.8098 40.5717 15.6329 39.644 15.6329C38.632 15.6329 37.6208 15.8434 36.6778 16.2631" fill="url(#paint2_linear_3165_12124)"/>
</g>
<defs>
<filter id="filter0_d_3165_12124" x="0" y="0" width="128" height="80" filterUnits="userSpaceOnUse" color-interpolation-filters="sRGB">
<feFlood flood-opacity="0" result="BackgroundImageFix"/>
<feColorMatrix in="SourceAlpha" type="matrix" values="0 0 0 0 0 0 0 0 0 0 0 0 0 0 0 0 0 0 127 0" result="hardAlpha"/>
<feOffset dy="4"/>
<feGaussianBlur stdDeviation="4"/>
<feColorMatrix type="matrix" values="0 0 0 0 0.0823529 0 0 0 0 0.207843 0 0 0 0 0.313726 0 0 0 0.12 0"/>
<feBlend mode="normal" in2="BackgroundImageFix" result="effect1_dropShadow_3165_12124"/>
<feBlend mode="normal" in="SourceGraphic" in2="effect1_dropShadow_3165_12124" result="shape"/>
</filter>
<linearGradient id="paint0_linear_3165_12124" x1="39.3059" y1="16.027" x2="39.747" y2="54.7533" gradientUnits="userSpaceOnUse">
<stop stop-color="#B7FDBC"/>
<stop offset="1" stop-color="#FAFD89"/>
</linearGradient>
<linearGradient id="paint1_linear_3165_12124" x1="39.8909" y1="15.0061" x2="39.4498" y2="54.7631" gradientUnits="userSpaceOnUse">
<stop stop-color="#B7FDBC"/>
<stop offset="1" stop-color="#FAFD89"/>
</linearGradient>
<linearGradient id="paint2_linear_3165_12124" x1="39.7118" y1="15.8772" x2="39.4178" y2="54.7507" gradientUnits="userSpaceOnUse">
<stop stop-color="#B7FDBC"/>
<stop offset="1" stop-color="#FAFD89"/>
</linearGradient>
<clipPath id="clip0_3165_12124">
<rect width="64" height="64" fill="white" transform="translate(56 4)"/>
</clipPath>
</defs>
</svg>
