<svg width="128" height="80" viewBox="0 0 128 80" fill="none" xmlns="http://www.w3.org/2000/svg">
<g filter="url(#filter0_d)">
<path d="M88 68C105.733 68 120 53.7334 120 36C120 18.2666 105.733 4 88 4C70.2666 4 56 18.2666 56 36C56 53.7334 70.2666 68 88 68Z" fill="#2775CA"/>
<path d="M96.8 41.0666C96.8 36.4 94 34.8 88.4 34.1335C84.4 33.6 83.6 32.5335 83.6 30.6666C83.6 28.7997 84.9334 27.6 87.6 27.6C90 27.6 91.3334 28.4 92 30.4C92.1334 30.8 92.5334 31.0666 92.9334 31.0666H95.0666C95.6 31.0666 96 30.6666 96 30.1335V30C95.4666 27.0666 93.0666 24.8 90 24.5335V21.3335C90 20.8 89.6 20.4 88.9334 20.2666H86.9334C86.4 20.2666 86 20.6666 85.8666 21.3335V24.4C81.8666 24.9335 79.3334 27.6 79.3334 30.9335C79.3334 35.3335 82 37.0666 87.6 37.7335C91.3334 38.4 92.5334 39.2 92.5334 41.3335C92.5334 43.4669 90.6666 44.9335 88.1334 44.9335C84.6666 44.9335 83.4666 43.4666 83.0666 41.4666C82.9334 40.9335 82.5334 40.6666 82.1334 40.6666H79.8666C79.3334 40.6666 78.9334 41.0666 78.9334 41.6V41.7335C79.4666 45.0666 81.6 47.4666 86 48.1335V51.3335C86 51.8666 86.4 52.2666 87.0666 52.4H89.0666C89.6 52.4 90 52 90.1334 51.3335V48.1335C94.1334 47.4666 96.8 44.6666 96.8 41.0666Z" fill="white"/>
<path d="M81.2 55.0665C70.8 51.3334 65.4665 39.7334 69.3334 29.4665C71.3334 23.8665 75.7334 19.5999 81.2 17.5999C81.7334 17.3334 82 16.9334 82 16.2665V14.3999C82 13.8665 81.7334 13.4665 81.2 13.3334C81.0666 13.3334 80.8 13.3334 80.6666 13.4665C68 17.4665 61.0665 30.9334 65.0665 43.5999C67.4665 51.0665 73.2 56.7999 80.6666 59.1999C81.2 59.4665 81.7334 59.1999 81.8666 58.6665C82 58.5334 82 58.3999 82 58.1334V56.2665C82 55.8665 81.6 55.3334 81.2 55.0665ZM95.3335 13.4665C94.8 13.1999 94.2666 13.4665 94.1335 13.9999C94 14.1334 94 14.2665 94 14.5334V16.3999C94 16.9334 94.4 17.4665 94.8 17.7334C105.2 21.4665 110.533 33.0665 106.667 43.3334C104.667 48.9334 100.267 53.1999 94.8 55.1999C94.2666 55.4665 94 55.8665 94 56.5334V58.3999C94 58.9334 94.2666 59.3334 94.8 59.4665C94.9335 59.4665 95.2 59.4665 95.3335 59.3334C108 55.3334 114.933 41.8665 110.933 29.1999C108.533 21.5999 102.667 15.8665 95.3335 13.4665Z" fill="white"/>
<circle cx="40" cy="36" r="32" fill="#EDEFF0"/>
<g clip-path="url(#clip0)">
<path d="M40.7293 12L40.4076 13.0935V44.8251L40.7293 45.1462L55.4588 36.4397L40.7293 12Z" fill="#343434"/>
<path d="M40.7294 12L26 36.4397L40.7294 45.1464V29.7448V12Z" fill="#8C8C8C"/>
<path d="M40.7293 47.9351L40.548 48.1561V59.4596L40.7293 59.9892L55.4675 39.2329L40.7293 47.9351Z" fill="#3C3C3B"/>
<path d="M40.7294 59.989V47.9349L26 39.2328L40.7294 59.989Z" fill="#8C8C8C"/>
<path d="M40.7294 45.1462L55.4586 36.4398L40.7294 29.7449V45.1462Z" fill="#141414"/>
<path d="M26.0001 36.4398L40.7293 45.1462V29.7449L26.0001 36.4398Z" fill="#393939"/>
</g>
</g>
<defs>
<filter id="filter0_d" x="0" y="0" width="128" height="80" filterUnits="userSpaceOnUse" color-interpolation-filters="sRGB">
<feFlood flood-opacity="0" result="BackgroundImageFix"/>
<feColorMatrix in="SourceAlpha" type="matrix" values="0 0 0 0 0 0 0 0 0 0 0 0 0 0 0 0 0 0 127 0"/>
<feOffset dy="4"/>
<feGaussianBlur stdDeviation="4"/>
<feColorMatrix type="matrix" values="0 0 0 0 0.0823529 0 0 0 0 0.207843 0 0 0 0 0.313726 0 0 0 0.12 0"/>
<feBlend mode="normal" in2="BackgroundImageFix" result="effect1_dropShadow"/>
<feBlend mode="normal" in="SourceGraphic" in2="effect1_dropShadow" result="shape"/>
</filter>
<clipPath id="clip0">
<rect width="29.4676" height="48" fill="white" transform="translate(26 12)"/>
</clipPath>
</defs>
</svg>
