<svg width="128" height="80" viewBox="0 0 128 80" fill="none" xmlns="http://www.w3.org/2000/svg">
<g filter="url(#filter0_d)">
<path d="M88 68C105.733 68 120 53.7334 120 36C120 18.2666 105.733 4 88 4C70.2666 4 56 18.2666 56 36C56 53.7334 70.2666 68 88 68Z" fill="#2775CA"/>
<path d="M96.8 41.0666C96.8 36.4 94 34.8 88.4 34.1335C84.4 33.6 83.6 32.5335 83.6 30.6666C83.6 28.7997 84.9334 27.6 87.6 27.6C90 27.6 91.3334 28.4 92 30.4C92.1334 30.8 92.5334 31.0666 92.9334 31.0666H95.0665C95.6 31.0666 96 30.6666 96 30.1335V30C95.4665 27.0666 93.0665 24.8 90 24.5335V21.3335C90 20.8 89.6 20.4 88.9334 20.2666H86.9334C86.4 20.2666 86 20.6666 85.8665 21.3335V24.4C81.8665 24.9335 79.3334 27.6 79.3334 30.9335C79.3334 35.3335 82 37.0666 87.6 37.7335C91.3334 38.4 92.5334 39.2 92.5334 41.3335C92.5334 43.4669 90.6665 44.9335 88.1334 44.9335C84.6665 44.9335 83.4665 43.4666 83.0665 41.4666C82.9334 40.9335 82.5334 40.6666 82.1334 40.6666H79.8665C79.3334 40.6666 78.9334 41.0666 78.9334 41.6V41.7335C79.4665 45.0666 81.6 47.4666 86 48.1335V51.3335C86 51.8666 86.4 52.2666 87.0665 52.4H89.0665C89.6 52.4 90 52 90.1334 51.3335V48.1335C94.1334 47.4666 96.8 44.6666 96.8 41.0666Z" fill="white"/>
<path d="M81.2 55.0666C70.8 51.3334 65.4665 39.7334 69.3334 29.4666C71.3334 23.8666 75.7334 19.6 81.2 17.6C81.7334 17.3334 82 16.9334 82 16.2666V14.4C82 13.8666 81.7334 13.4666 81.2 13.3334C81.0666 13.3334 80.8 13.3334 80.6666 13.4666C68 17.4666 61.0665 30.9334 65.0665 43.6C67.4665 51.0666 73.2 56.8 80.6666 59.2C81.2 59.4666 81.7334 59.2 81.8666 58.6666C82 58.5334 82 58.4 82 58.1334V56.2666C82 55.8666 81.6 55.3334 81.2 55.0666ZM95.3335 13.4666C94.8 13.2 94.2666 13.4666 94.1335 14C94 14.1334 94 14.2666 94 14.5334V16.4C94 16.9334 94.4 17.4666 94.8 17.7334C105.2 21.4666 110.533 33.0666 106.667 43.3334C104.667 48.9334 100.267 53.2 94.8 55.2C94.2666 55.4666 94 55.8666 94 56.5334V58.4C94 58.9334 94.2666 59.3334 94.8 59.4666C94.9335 59.4666 95.2 59.4666 95.3335 59.3334C108 55.3334 114.933 41.8666 110.933 29.2C108.533 21.6 102.667 15.8666 95.3335 13.4666Z" fill="white"/>
<circle cx="40" cy="36" r="32" fill="#31CB9E"/>
<g clip-path="url(#clip0)">
<path d="M37.3177 35.9964L55.2148 46.2479C55.3586 46.3343 55.5229 46.3809 55.6907 46.3828C55.8585 46.3848 56.0238 46.342 56.1695 46.2589C56.3153 46.1758 56.4364 46.0554 56.5202 45.91C56.604 45.7646 56.6476 45.5996 56.6465 45.4317V26.5467C56.6487 26.3786 56.6056 26.2131 56.5218 26.0673C56.4379 25.9216 56.3165 25.8011 56.1701 25.7184C56.0238 25.6357 55.8579 25.5939 55.6898 25.5973C55.5217 25.6007 55.3577 25.6492 55.2148 25.7378L37.3177 35.9964Z" fill="white"/>
<path d="M54.8354 21.1991L42.6009 12.2004C42.4742 12.1032 42.3256 12.0386 42.168 12.0123C42.0105 11.9861 41.8489 11.999 41.6976 12.0499C41.5462 12.1008 41.4097 12.1882 41.3001 12.3044C41.1904 12.4205 41.1111 12.5618 41.0689 12.7159L36.6018 32.7606L54.728 22.7382C54.8659 22.6673 54.9832 22.562 55.0685 22.4325C55.1539 22.3029 55.2044 22.1536 55.2152 21.9989C55.226 21.8442 55.1967 21.6893 55.1302 21.5492C55.0636 21.4091 54.9621 21.2885 54.8354 21.1991Z" fill="white"/>
<path d="M42.5866 59.7852L54.8354 50.7865C54.9638 50.6963 55.0669 50.5745 55.1348 50.433C55.2026 50.2914 55.233 50.1348 55.2229 49.9781C55.2128 49.8215 55.1627 49.67 55.0773 49.5383C54.9919 49.4066 54.8741 49.299 54.7351 49.2259L36.6018 39.2036L41.0689 59.2483C41.106 59.404 41.1811 59.5481 41.2877 59.6676C41.3942 59.7871 41.5287 59.8783 41.6792 59.933C41.8297 59.9876 41.9913 60.004 42.1497 59.9807C42.3081 59.9575 42.4582 59.8952 42.5866 59.7995" fill="white"/>
<path d="M32.6644 35.6242L37.3177 13.8613C37.3532 13.681 37.3341 13.4941 37.2628 13.3247C37.1916 13.1553 37.0714 13.011 36.9176 12.9102C36.7638 12.8095 36.5835 12.757 36.3997 12.7594C36.2159 12.7617 36.037 12.8189 35.8859 12.9235L23.9664 22.0653C23.6646 22.2969 23.4203 22.595 23.2527 22.9365C23.0851 23.278 22.9986 23.6536 23 24.034V47.2287C22.9941 47.6139 23.0785 47.9951 23.2463 48.342C23.4141 48.6888 23.6607 48.9915 23.9664 49.226L35.8286 58.3392C35.9797 58.4438 36.1586 58.501 36.3424 58.5033C36.5262 58.5057 36.7066 58.4532 36.8603 58.3524C37.0141 58.2517 37.1343 58.1074 37.2056 57.938C37.2768 57.7686 37.2959 57.5817 37.2604 57.4014L32.6644 35.6242Z" fill="white"/>
</g>
</g>
<defs>
<filter id="filter0_d" x="0" y="0" width="128" height="80" filterUnits="userSpaceOnUse" color-interpolation-filters="sRGB">
<feFlood flood-opacity="0" result="BackgroundImageFix"/>
<feColorMatrix in="SourceAlpha" type="matrix" values="0 0 0 0 0 0 0 0 0 0 0 0 0 0 0 0 0 0 127 0"/>
<feOffset dy="4"/>
<feGaussianBlur stdDeviation="4"/>
<feColorMatrix type="matrix" values="0 0 0 0 0.0823529 0 0 0 0 0.207843 0 0 0 0 0.313726 0 0 0 0.12 0"/>
<feBlend mode="normal" in2="BackgroundImageFix" result="effect1_dropShadow"/>
<feBlend mode="normal" in="SourceGraphic" in2="effect1_dropShadow" result="shape"/>
</filter>
<clipPath id="clip0">
<rect width="33.6465" height="48" fill="white" transform="translate(23 12)"/>
</clipPath>
</defs>
</svg>
