<svg width="16" height="16" viewBox="0 0 16 16" fill="none"
  xmlns="http://www.w3.org/2000/svg">
  <path d="M10.9067 9.33325C10.96 8.89325 11 8.45325 11 7.99992C11 7.54659 10.96 7.10659 10.9067 6.66659H13.16C13.2667 7.09325 13.3334 7.53992 13.3334 7.99992C13.3334 8.45992 13.2667 8.90659 13.16 9.33325H10.9067ZM9.72671 13.0399C10.1267 12.2999 10.4334 11.4999 10.6467 10.6666H12.6134C11.9734 11.7666 10.9534 12.6199 9.72671 13.0399ZM9.56004 9.33325H6.44004C6.37337 8.89325 6.33337 8.45325 6.33337 7.99992C6.33337 7.54659 6.37337 7.09992 6.44004 6.66659H9.56004C9.62004 7.09992 9.66671 7.54659 9.66671 7.99992C9.66671 8.45325 9.62004 8.89325 9.56004 9.33325ZM8.00004 13.3066C7.44671 12.5066 7.00004 11.6199 6.72671 10.6666H9.27337C9.00004 11.6199 8.55337 12.5066 8.00004 13.3066ZM5.33337 5.33325H3.38671C4.02004 4.22659 5.04671 3.37325 6.26671 2.95992C5.86671 3.69992 5.56671 4.49992 5.33337 5.33325ZM3.38671 10.6666H5.33337C5.56671 11.4999 5.86671 12.2999 6.26671 13.0399C5.04671 12.6199 4.02004 11.7666 3.38671 10.6666ZM2.84004 9.33325C2.73337 8.90659 2.66671 8.45992 2.66671 7.99992C2.66671 7.53992 2.73337 7.09325 2.84004 6.66659H5.09337C5.04004 7.10659 5.00004 7.54659 5.00004 7.99992C5.00004 8.45325 5.04004 8.89325 5.09337 9.33325H2.84004ZM8.00004 2.68659C8.55337 3.48659 9.00004 4.37992 9.27337 5.33325H6.72671C7.00004 4.37992 7.44671 3.48659 8.00004 2.68659ZM12.6134 5.33325H10.6467C10.4334 4.49992 10.1267 3.69992 9.72671 2.95992C10.9534 3.37992 11.9734 4.22659 12.6134 5.33325ZM8.00004 1.33325C4.31337 1.33325 1.33337 4.33325 1.33337 7.99992C1.33337 9.76803 2.03575 11.4637 3.286 12.714C3.90505 13.333 4.63998 13.8241 5.44882 14.1591C6.25766 14.4941 7.12456 14.6666 8.00004 14.6666C9.76815 14.6666 11.4638 13.9642 12.7141 12.714C13.9643 11.4637 14.6667 9.76803 14.6667 7.99992C14.6667 7.12444 14.4943 6.25753 14.1592 5.4487C13.8242 4.63986 13.3331 3.90493 12.7141 3.28587C12.095 2.66682 11.3601 2.17575 10.5513 1.84072C9.74243 1.50569 8.87552 1.33325 8.00004 1.33325Z" fill="#0F273C"/>
</svg>
