<svg width="16" height="16" viewBox="0 0 16 16" fill="none"
  xmlns="http://www.w3.org/2000/svg">
  <path d="M11.7733 7.46667C11.62 7.26667 11.4333 7.09333 11.26 6.92C10.8133 6.52 10.3067 6.23333 9.88 5.81333C8.88667 4.84 8.66667 3.23333 9.3 2C8.66667 2.15333 8.11334 2.5 7.64 2.88C5.91334 4.26667 5.23334 6.71333 6.04667 8.81333C6.07334 8.88 6.1 8.94667 6.1 9.03333C6.1 9.18 6 9.31333 5.86667 9.36667C5.71334 9.43333 5.55334 9.39333 5.42667 9.28667C5.38667 9.25333 5.36 9.22 5.33334 9.17333C4.58 8.22 4.46 6.85333 4.96667 5.76C3.85334 6.66667 3.24667 8.2 3.33334 9.64667C3.37334 9.98 3.41334 10.3133 3.52667 10.6467C3.62 11.0467 3.8 11.4467 4 11.8C4.72 12.9533 5.96667 13.78 7.30667 13.9467C8.73334 14.1267 10.26 13.8667 11.3533 12.88C12.5733 11.7733 13 10 12.3733 8.48L12.2867 8.30667C12.1467 8 11.7733 7.46667 11.7733 7.46667ZM9.66667 11.6667C9.48 11.8267 9.17334 12 8.93334 12.0667C8.18667 12.3333 7.44 11.96 7 11.52C7.79334 11.3333 8.26667 10.7467 8.40667 10.1533C8.52 9.62 8.30667 9.18 8.22 8.66667C8.14 8.17333 8.15334 7.75333 8.33334 7.29333C8.46 7.54667 8.59334 7.8 8.75334 8C9.26667 8.66667 10.0733 8.96 10.2467 9.86667C10.2733 9.96 10.2867 10.0533 10.2867 10.1533C10.3067 10.7 10.0667 11.3 9.66667 11.6667Z" fill="#FC6E4C"/>
</svg>
