<svg width="96" height="31" viewBox="0 0 96 31" fill="none"
  xmlns="http://www.w3.org/2000/svg">
  <path fill-rule="evenodd" clip-rule="evenodd" d="M39.681 4.40246C38.4431 4.40246 37.4112 5.46963 37.4112 6.76567V9.08334H42.3633V13.0851H37.4112V28.1395H33.0773V13.0851H30.189V9.08334H33.0773V6.4602C33.0773 2.61128 35.9325 0.133789 39.2336 0.133789C41.882 0.133789 43.3264 1.73439 43.3264 1.73439L41.676 5.12617C41.676 5.12617 40.7129 4.40246 39.681 4.40246Z" fill="white"/>
  <path fill-rule="evenodd" clip-rule="evenodd" d="M60.9834 9.08374V28.1387H57.5439L56.9251 26.0046H56.4778C55.7904 26.9575 54.2768 28.3292 51.4565 28.3292C46.882 28.3292 44.5434 24.7469 44.5434 19.4116V9.08374H49.221V18.2685C49.221 20.6311 49.3927 23.9089 52.3507 23.9089C53.864 23.9089 56.3406 23.0323 56.3406 18.0393V9.08374H60.9834Z" fill="white"/>
  <path fill-rule="evenodd" clip-rule="evenodd" d="M70.5279 12.9329C69.0832 12.9329 68.4647 13.7332 68.4647 14.5341C68.4647 15.8292 70.0123 16.2101 71.0439 16.4389C74.105 17.1629 77.2007 18.1924 77.2007 22.2319C77.2007 26.1574 74.2765 28.33 70.7345 28.33C66.7797 28.33 63.7185 25.6617 63.5117 21.6222H67.7427C67.8456 22.7656 68.533 24.2517 70.6308 24.2517C72.3852 24.2517 72.7977 23.2228 72.7977 22.4225C72.7977 21.0122 71.5939 20.5933 70.4248 20.2884C68.3958 19.7927 64.0274 18.8778 64.0274 14.5341C64.0274 10.7985 67.2602 8.89307 70.5968 8.89307C74.449 8.89307 76.9936 11.4842 77.2007 14.6857H72.9705C72.8328 14.038 72.2821 12.9329 70.5279 12.9329Z" fill="white"/>
  <path fill-rule="evenodd" clip-rule="evenodd" d="M95.8683 20.0596H83.3151C83.8311 22.9556 85.964 24.0231 87.8204 24.0231C90.1593 24.0231 91.157 22.4228 91.157 22.4228H95.4903C94.1833 26.2334 91.0533 28.33 87.6825 28.33C83.0397 28.33 78.981 24.4045 78.981 18.4584C78.981 12.5517 83.0054 8.89307 87.5453 8.89307C91.948 8.89307 96.4185 12.2848 95.8683 20.0596ZM83.59 16.2101H91.3284C90.813 13.9614 89.4026 13.0474 87.6825 13.0474C85.7915 13.0474 84.2782 14.2286 83.59 16.2101Z" fill="white"/>
  <path fill-rule="evenodd" clip-rule="evenodd" d="M6.96061 21.332L8.9161 22.3157C10.2133 22.9682 11.593 23.2987 13.0168 23.2987C14.4414 23.2987 15.8213 22.9682 17.118 22.3157L18.2576 21.7424L15.3394 20.2757L15.2409 20.3092C13.4723 20.9117 11.5726 20.7787 9.89167 19.9332L2.63625 16.283L6.96061 14.1082L8.91801 15.0937C10.2155 15.7456 11.5946 16.0761 13.0168 16.0761C14.4392 16.0761 15.8183 15.7456 17.1161 15.0934L18.2552 14.5198L15.3366 13.0528L15.2381 13.0863C13.4712 13.6882 11.5734 13.5552 9.8944 12.7112L2.63652 9.05977L9.89385 5.40866C11.879 4.41055 14.1559 4.41085 16.1402 5.40866L23.3976 9.05977L16.223 12.6693L23.3978 16.283L16.2257 19.8916L23.3978 23.5068L16.1408 27.1576C14.1556 28.1566 11.8785 28.1566 9.89331 27.1576L2.63625 23.5068L6.96061 21.332ZM25.8094 16.2836C25.8094 15.2589 25.2867 14.3603 24.4455 13.9373L21.9292 12.6711L24.4447 11.4061C25.2864 10.9833 25.8094 10.0838 25.8094 9.05977C25.8094 8.03572 25.2867 7.13681 24.4452 6.71344L17.1166 3.02706C14.5113 1.71624 11.5228 1.71624 8.91746 3.02706L1.58857 6.71344C0.747153 7.13681 0.22467 8.03572 0.22467 9.05977C0.22467 10.0835 0.747425 10.983 1.58911 11.4061L4.10437 12.6711L1.58884 13.9373C0.747425 14.3603 0.22467 15.2589 0.22467 16.2836C0.22467 17.307 0.747425 18.2062 1.58911 18.6296L4.10437 19.8949L1.58857 21.1608C0.747153 21.5841 0.22467 22.4827 0.22467 23.5068C0.22467 24.5308 0.747425 25.43 1.58911 25.8534L8.91746 29.5401C10.2139 30.1923 11.593 30.5228 13.0168 30.5228C14.4408 30.5228 15.8202 30.1923 17.1166 29.5401L24.4447 25.8534C25.2864 25.4306 25.8094 24.5311 25.8094 23.5068C25.8094 22.4827 25.2867 21.5841 24.4452 21.1608L21.9292 19.8949L24.4447 18.6296C25.2864 18.2068 25.8094 17.3076 25.8094 16.2836Z" fill="white"/>
</svg>
