<svg width="64" height="64" viewBox="0 0 64 64" fill="none" xmlns="http://www.w3.org/2000/svg">
<circle cx="32" cy="32" r="32" fill="#0A2336"/>
<path d="M36.3514 42.0365C34.8037 42.6647 33.1495 42.9898 31.4789 42.9943C29.7988 42.993 28.1349 42.6672 26.5787 42.0348L18.3916 38.7199L14.3016 40.5385C13.1941 41.032 12.6969 42.3287 13.1912 43.4345C13.4215 43.9501 13.8423 44.3571 14.3657 44.5707L27.1668 50.1494C29.9462 51.2799 33.0576 51.2837 35.8396 50.1597L48.698 44.5948C50.0147 44.0622 50.6498 42.5646 50.1164 41.2498C49.855 40.6054 49.3433 40.0943 48.698 39.8334L45.2826 38.4477L36.3514 42.0365Z" fill="url(#paint0_linear)"/>
<path d="M36.3549 30.7352C34.8076 31.3593 33.1547 31.6809 31.486 31.6826C29.8059 31.6813 28.142 31.3555 26.5858 30.7231L19.2833 27.7665L14.3086 29.9783C13.201 30.4717 12.7039 31.7684 13.1982 32.8742C13.4286 33.3898 13.8493 33.7968 14.3727 34.0103L22.0048 37.1158L27.6439 39.4557C30.0994 40.4559 32.849 40.4595 35.3072 39.466L41.5257 36.9354L48.705 34.0361C50.021 33.5042 50.6558 32.0077 50.123 30.6937C49.8616 30.0488 49.3492 29.5376 48.7033 29.2769L44.3547 27.5206L36.3549 30.7352Z" fill="url(#paint1_linear)"/>
<path d="M28.6778 12.2631L14.3068 18.6438C13.1993 19.1374 12.7022 20.434 13.1964 21.5399C13.4268 22.0554 13.8476 22.4623 14.371 22.676L22.9085 26.1486L27.6405 28.1405C30.0961 29.1406 32.8455 29.1443 35.3038 28.1509L40.5665 25.9859L48.6999 22.695C50.0123 22.1518 50.6351 20.649 50.0909 19.3386C49.8304 18.711 49.3314 18.212 48.7033 17.951L34.3775 12.1643C33.5002 11.8097 32.5717 11.6329 31.644 11.6329C30.632 11.6329 29.6208 11.8433 28.6778 12.2631Z" fill="url(#paint2_linear)"/>
<defs>
<linearGradient id="paint0_linear" x1="31.3059" y1="12.027" x2="31.747" y2="50.7532" gradientUnits="userSpaceOnUse">
<stop stop-color="#B7FDBC"/>
<stop offset="1" stop-color="#FAFD89"/>
</linearGradient>
<linearGradient id="paint1_linear" x1="31.8909" y1="11.0061" x2="31.4498" y2="50.7631" gradientUnits="userSpaceOnUse">
<stop stop-color="#B7FDBC"/>
<stop offset="1" stop-color="#FAFD89"/>
</linearGradient>
<linearGradient id="paint2_linear" x1="31.7118" y1="11.8771" x2="31.4178" y2="50.7506" gradientUnits="userSpaceOnUse">
<stop stop-color="#B7FDBC"/>
<stop offset="1" stop-color="#FAFD89"/>
</linearGradient>
</defs>
</svg>
