<svg width="540" height="306" viewBox="0 0 540 306" fill="none" xmlns="http://www.w3.org/2000/svg">
<rect y="37" width="540" height="244" fill="#071927"/>
<path d="M56.2523 145.292C53.522 147.389 57.1967 165.391 59.7767 167.965C62.3567 170.538 84.7632 190.58 84.7632 190.58L91.5674 180.706C91.5674 180.706 59.7874 142.684 56.2523 145.292Z" fill="url(#paint0_linear_2902_12422)"/>
<path d="M7.06311 305.054L157.787 200.577C160.335 198.808 162.34 180.83 159.275 178.715C156.21 176.601 7.06311 305.054 7.06311 305.054Z" fill="url(#paint1_linear_2902_12422)"/>
<path d="M200 15.3361L119.97 145.809L126.056 151.024L200 15.3361Z" fill="url(#paint2_linear_2902_12422)"/>
<path d="M196.834 13.5238L56.2434 145.284C56.0274 145.486 55.8556 145.731 55.7388 146.003C55.6219 146.275 55.5625 146.568 55.5643 146.864C55.5661 147.16 55.6291 147.452 55.7493 147.723C55.8695 147.993 56.0443 148.236 56.2627 148.435L91.5671 180.707L4.36859 302.505C3.1022 304.274 5.37098 306.414 7.06236 305.047L159.244 182.022C159.49 181.823 159.689 181.572 159.827 181.287C159.965 181.002 160.038 180.689 160.041 180.372C160.044 180.056 159.977 179.742 159.844 179.454C159.711 179.167 159.517 178.912 159.274 178.708L120.271 145.96L199.706 15.8591C200.842 14.0089 198.422 12.0342 196.834 13.5238Z" fill="#F3FC1F"/>
<rect x="257" y="163" width="72" height="28" fill="url(#paint3_linear_2902_12422)"/>
<path d="M211.4 181.02V174.94H205.32V177.6H208.42V179.6C207.64 180.16 206.64 180.44 205.52 180.44C203.04 180.44 201.28 178.56 201.28 176V175.96C201.28 173.58 203.06 171.6 205.3 171.6C206.92 171.6 207.88 172.12 208.96 173.02L210.9 170.68C209.44 169.44 207.92 168.76 205.4 168.76C201.16 168.76 198.06 172.02 198.06 176V176.04C198.06 180.18 201.06 183.24 205.42 183.24C207.98 183.24 209.96 182.24 211.4 181.02ZM225.124 177.66V177.62C225.124 174.54 222.664 172.08 219.344 172.08C216.004 172.08 213.524 174.58 213.524 177.66V177.7C213.524 180.78 215.984 183.24 219.304 183.24C222.644 183.24 225.124 180.74 225.124 177.66ZM222.124 177.7C222.124 179.28 221.084 180.62 219.344 180.62C217.664 180.62 216.524 179.24 216.524 177.66V177.62C216.524 176.04 217.564 174.7 219.304 174.7C220.984 174.7 222.124 176.08 222.124 177.66V177.7ZM239.341 182.56V180.12C238.901 180.36 238.401 180.5 237.841 180.5C237.161 180.5 236.861 180.16 236.861 179.46V174.88H239.381V172.28H236.861V169.54H233.821V172.28H232.541V174.88H233.821V179.96C233.821 182.44 235.081 183.18 236.941 183.18C237.961 183.18 238.701 182.94 239.341 182.56ZM252.409 177.66V177.62C252.409 174.54 249.949 172.08 246.629 172.08C243.289 172.08 240.809 174.58 240.809 177.66V177.7C240.809 180.78 243.269 183.24 246.589 183.24C249.929 183.24 252.409 180.74 252.409 177.66ZM249.409 177.7C249.409 179.28 248.369 180.62 246.629 180.62C244.949 180.62 243.809 179.24 243.809 177.66V177.62C243.809 176.04 244.849 174.7 246.589 174.7C248.269 174.7 249.409 176.08 249.409 177.66V177.7ZM339.399 171.08V168.56C338.839 168.38 338.199 168.26 337.239 168.26C335.099 168.26 333.919 169.34 333.919 171.7V172.38H332.659V174.88H333.919V183H336.959V174.88H339.379V172.4H336.919V171.98C336.919 171.18 337.319 170.82 338.019 170.82C338.539 170.82 338.959 170.92 339.399 171.08ZM351.92 177.66V177.62C351.92 174.54 349.46 172.08 346.14 172.08C342.8 172.08 340.32 174.58 340.32 177.66V177.7C340.32 180.78 342.78 183.24 346.1 183.24C349.44 183.24 351.92 180.74 351.92 177.66ZM348.92 177.7C348.92 179.28 347.88 180.62 346.14 180.62C344.46 180.62 343.32 179.24 343.32 177.66V177.62C343.32 176.04 344.36 174.7 346.1 174.7C347.78 174.7 348.92 176.08 348.92 177.66V177.7ZM360.582 175.26V172.08C358.782 172 357.782 172.96 357.162 174.44V172.28H354.122V183H357.162V179.04C357.162 176.48 358.402 175.26 360.422 175.26H360.582ZM374.497 182.56V180.12C374.057 180.36 373.557 180.5 372.997 180.5C372.317 180.5 372.017 180.16 372.017 179.46V174.88H374.537V172.28H372.017V169.54H368.977V172.28H367.697V174.88H368.977V179.96C368.977 182.44 370.237 183.18 372.097 183.18C373.117 183.18 373.857 182.94 374.497 182.56ZM386.598 183V176.06C386.598 173.6 385.258 172.08 382.958 172.08C381.418 172.08 380.518 172.9 379.818 173.8V168.4H376.778V183H379.818V177.02C379.818 175.58 380.558 174.84 381.718 174.84C382.878 174.84 383.558 175.58 383.558 177.02V183H386.598ZM399.239 177.94V177.9C399.239 174.86 397.599 172.08 394.019 172.08C390.899 172.08 388.719 174.6 388.719 177.66V177.7C388.719 180.98 391.099 183.24 394.319 183.24C396.259 183.24 397.699 182.48 398.699 181.24L396.959 179.7C396.119 180.48 395.379 180.8 394.359 180.8C392.999 180.8 392.039 180.08 391.739 178.7H399.199C399.219 178.42 399.239 178.24 399.239 177.94ZM396.279 176.8H391.699C391.939 175.42 392.759 174.52 394.019 174.52C395.299 174.52 396.099 175.44 396.279 176.8ZM410.681 183V168.4H407.641V183H410.681ZM422.756 183V176.78C422.756 173.88 421.296 172.16 417.976 172.16C416.156 172.16 414.996 172.5 413.816 173.02L414.576 175.34C415.556 174.98 416.376 174.76 417.536 174.76C419.056 174.76 419.836 175.46 419.836 176.72V176.9C419.076 176.64 418.296 176.46 417.216 176.46C414.676 176.46 412.896 177.54 412.896 179.88V179.92C412.896 182.04 414.556 183.2 416.576 183.2C418.056 183.2 419.076 182.66 419.816 181.84V183H422.756ZM419.876 179.22C419.876 180.32 418.916 181.1 417.496 181.1C416.516 181.1 415.836 180.62 415.836 179.8V179.76C415.836 178.8 416.636 178.28 417.936 178.28C418.676 178.28 419.356 178.44 419.876 178.68V179.22ZM431.294 182.56V180.12C430.854 180.36 430.354 180.5 429.794 180.5C429.114 180.5 428.814 180.16 428.814 179.46V174.88H431.334V172.28H428.814V169.54H425.774V172.28H424.494V174.88H425.774V179.96C425.774 182.44 427.034 183.18 428.894 183.18C429.914 183.18 430.654 182.94 431.294 182.56ZM443.282 177.94V177.9C443.282 174.86 441.642 172.08 438.062 172.08C434.942 172.08 432.762 174.6 432.762 177.66V177.7C432.762 180.98 435.142 183.24 438.362 183.24C440.302 183.24 441.742 182.48 442.742 181.24L441.002 179.7C440.162 180.48 439.422 180.8 438.402 180.8C437.042 180.8 436.082 180.08 435.782 178.7H443.242C443.262 178.42 443.282 178.24 443.282 177.94ZM440.322 176.8H435.742C435.982 175.42 436.802 174.52 438.062 174.52C439.342 174.52 440.142 175.44 440.322 176.8ZM453.408 179.74V179.7C453.408 177.74 451.668 177.02 450.168 176.52C449.008 176.12 447.988 175.84 447.988 175.24V175.2C447.988 174.78 448.368 174.46 449.108 174.46C449.888 174.46 450.948 174.84 452.008 175.46L453.168 173.36C452.008 172.58 450.528 172.12 449.168 172.12C447.008 172.12 445.248 173.34 445.248 175.52V175.56C445.248 177.64 446.948 178.34 448.448 178.78C449.628 179.14 450.668 179.36 450.668 180.02V180.06C450.668 180.54 450.268 180.86 449.388 180.86C448.388 180.86 447.168 180.42 446.008 179.58L444.708 181.58C446.128 182.7 447.808 183.2 449.308 183.2C451.628 183.2 453.408 182.12 453.408 179.74ZM461.411 182.56V180.12C460.971 180.36 460.471 180.5 459.911 180.5C459.231 180.5 458.931 180.16 458.931 179.46V174.88H461.451V172.28H458.931V169.54H455.891V172.28H454.611V174.88H455.891V179.96C455.891 182.44 457.151 183.18 459.011 183.18C460.031 183.18 460.771 182.94 461.411 182.56ZM208.56 197.28H205.4L203.06 204.58L200.62 197.28H197.4L201.6 208.04C201.34 208.58 201.06 208.74 200.54 208.74C200.14 208.74 199.64 208.56 199.24 208.32L198.22 210.52C199 210.98 199.82 211.26 200.92 211.26C202.74 211.26 203.62 210.44 204.44 208.26L208.56 197.28ZM213.612 196.1V193.4H210.412V196.1H213.612ZM213.532 208V197.28H210.492V208H213.532ZM226.387 202.94V202.9C226.387 199.86 224.747 197.08 221.167 197.08C218.047 197.08 215.867 199.6 215.867 202.66V202.7C215.867 205.98 218.247 208.24 221.467 208.24C223.407 208.24 224.847 207.48 225.847 206.24L224.107 204.7C223.267 205.48 222.527 205.8 221.507 205.8C220.147 205.8 219.187 205.08 218.887 203.7H226.347C226.367 203.42 226.387 203.24 226.387 202.94ZM223.427 201.8H218.847C219.087 200.42 219.907 199.52 221.167 199.52C222.447 199.52 223.247 200.44 223.427 201.8ZM231.833 208V193.4H228.793V208H231.833ZM245.468 208V193.4H242.428V198.68C241.708 197.82 240.708 197.08 239.088 197.08C236.548 197.08 234.208 199.04 234.208 202.62V202.66C234.208 206.24 236.588 208.2 239.088 208.2C240.668 208.2 241.688 207.46 242.428 206.46V208H245.468ZM242.468 202.66C242.468 204.44 241.288 205.62 239.868 205.62C238.448 205.62 237.248 204.44 237.248 202.66V202.62C237.248 200.82 238.448 199.66 239.868 199.66C241.288 199.66 242.468 200.84 242.468 202.62V202.66ZM264.18 202.94V202.9C264.18 199.86 262.54 197.08 258.96 197.08C255.84 197.08 253.66 199.6 253.66 202.66V202.7C253.66 205.98 256.04 208.24 259.26 208.24C261.2 208.24 262.64 207.48 263.64 206.24L261.9 204.7C261.06 205.48 260.32 205.8 259.3 205.8C257.94 205.8 256.98 205.08 256.68 203.7H264.14C264.16 203.42 264.18 203.24 264.18 202.94ZM261.22 201.8H256.64C256.88 200.42 257.7 199.52 258.96 199.52C260.24 199.52 261.04 200.44 261.22 201.8ZM275.666 208V201.78C275.666 198.88 274.206 197.16 270.886 197.16C269.066 197.16 267.906 197.5 266.726 198.02L267.486 200.34C268.466 199.98 269.286 199.76 270.446 199.76C271.966 199.76 272.746 200.46 272.746 201.72V201.9C271.986 201.64 271.206 201.46 270.126 201.46C267.586 201.46 265.806 202.54 265.806 204.88V204.92C265.806 207.04 267.466 208.2 269.486 208.2C270.966 208.2 271.986 207.66 272.726 206.84V208H275.666ZM272.786 204.22C272.786 205.32 271.826 206.1 270.406 206.1C269.426 206.1 268.746 205.62 268.746 204.8V204.76C268.746 203.8 269.546 203.28 270.846 203.28C271.586 203.28 272.266 203.44 272.786 203.68V204.22ZM284.742 200.26V197.08C282.942 197 281.942 197.96 281.322 199.44V197.28H278.282V208H281.322V204.04C281.322 201.48 282.562 200.26 284.582 200.26H284.742ZM296.461 208V201.06C296.461 198.6 295.121 197.08 292.821 197.08C291.281 197.08 290.381 197.9 289.681 198.8V197.28H286.641V208H289.681V202.02C289.681 200.58 290.421 199.84 291.581 199.84C292.741 199.84 293.421 200.58 293.421 202.02V208H296.461ZM302.362 196.1V193.4H299.162V196.1H302.362ZM302.282 208V197.28H299.242V208H302.282ZM314.957 208V201.06C314.957 198.6 313.617 197.08 311.317 197.08C309.777 197.08 308.877 197.9 308.177 198.8V197.28H305.137V208H308.177V202.02C308.177 200.58 308.917 199.84 310.077 199.84C311.237 199.84 311.917 200.58 311.917 202.02V208H314.957ZM328.378 205.58V197.28H325.338V198.68C324.518 197.78 323.538 197.08 321.878 197.08C319.418 197.08 317.118 198.88 317.118 202.08V202.12C317.118 205.3 319.378 207.12 321.878 207.12C323.498 207.12 324.478 206.46 325.378 205.38V205.9C325.378 207.82 324.398 208.82 322.318 208.82C320.898 208.82 319.798 208.46 318.698 207.84L317.658 210.12C319.018 210.84 320.658 211.24 322.398 211.24C326.378 211.24 328.378 209.62 328.378 205.58ZM325.378 202.12C325.378 203.58 324.238 204.6 322.758 204.6C321.278 204.6 320.158 203.6 320.158 202.12V202.08C320.158 200.62 321.278 199.6 322.758 199.6C324.238 199.6 325.378 200.62 325.378 202.08V202.12ZM348.17 202.66V202.62C348.17 199.54 345.71 197.08 342.39 197.08C339.05 197.08 336.57 199.58 336.57 202.66V202.7C336.57 205.78 339.03 208.24 342.35 208.24C345.69 208.24 348.17 205.74 348.17 202.66ZM345.17 202.7C345.17 204.28 344.13 205.62 342.39 205.62C340.71 205.62 339.57 204.24 339.57 202.66V202.62C339.57 201.04 340.61 199.7 342.35 199.7C344.03 199.7 345.17 201.08 345.17 202.66V202.7ZM361.632 202.66V202.62C361.632 199.04 359.252 197.08 356.752 197.08C355.172 197.08 354.152 197.82 353.412 198.82V197.28H350.372V211.2H353.412V206.6C354.132 207.46 355.132 208.2 356.752 208.2C359.292 208.2 361.632 206.24 361.632 202.66ZM358.592 202.66C358.592 204.46 357.392 205.62 355.972 205.62C354.552 205.62 353.372 204.44 353.372 202.66V202.62C353.372 200.84 354.552 199.66 355.972 199.66C357.392 199.66 358.592 200.84 358.592 202.62V202.66ZM375.128 202.66V202.62C375.128 199.04 372.748 197.08 370.248 197.08C368.668 197.08 367.648 197.82 366.908 198.82V197.28H363.868V211.2H366.908V206.6C367.628 207.46 368.628 208.2 370.248 208.2C372.788 208.2 375.128 206.24 375.128 202.66ZM372.088 202.66C372.088 204.46 370.888 205.62 369.468 205.62C368.048 205.62 366.868 204.44 366.868 202.66V202.62C366.868 200.84 368.048 199.66 369.468 199.66C370.888 199.66 372.088 200.84 372.088 202.62V202.66ZM388.444 202.66V202.62C388.444 199.54 385.984 197.08 382.664 197.08C379.324 197.08 376.844 199.58 376.844 202.66V202.7C376.844 205.78 379.304 208.24 382.624 208.24C385.964 208.24 388.444 205.74 388.444 202.66ZM385.444 202.7C385.444 204.28 384.404 205.62 382.664 205.62C380.984 205.62 379.844 204.24 379.844 202.66V202.62C379.844 201.04 380.884 199.7 382.624 199.7C384.304 199.7 385.444 201.08 385.444 202.66V202.7ZM397.105 200.26V197.08C395.305 197 394.305 197.96 393.685 199.44V197.28H390.645V208H393.685V204.04C393.685 201.48 394.925 200.26 396.945 200.26H397.105ZM405.025 207.56V205.12C404.585 205.36 404.085 205.5 403.525 205.5C402.845 205.5 402.545 205.16 402.545 204.46V199.88H405.065V197.28H402.545V194.54H399.505V197.28H398.225V199.88H399.505V204.96C399.505 207.44 400.765 208.18 402.625 208.18C403.645 208.18 404.385 207.94 405.025 207.56ZM417.045 208V197.28H414.005V203.26C414.005 204.7 413.265 205.44 412.105 205.44C410.945 205.44 410.265 204.7 410.265 203.26V197.28H407.225V204.22C407.225 206.68 408.565 208.2 410.865 208.2C412.405 208.2 413.305 207.38 414.005 206.48V208H417.045ZM429.586 208V201.06C429.586 198.6 428.246 197.08 425.946 197.08C424.406 197.08 423.506 197.9 422.806 198.8V197.28H419.766V208H422.806V202.02C422.806 200.58 423.546 199.84 424.706 199.84C425.866 199.84 426.546 200.58 426.546 202.02V208H429.586ZM435.487 196.1V193.4H432.287V196.1H435.487ZM435.407 208V197.28H432.367V208H435.407ZM444.282 207.56V205.12C443.842 205.36 443.342 205.5 442.782 205.5C442.102 205.5 441.802 205.16 441.802 204.46V199.88H444.322V197.28H441.802V194.54H438.762V197.28H437.482V199.88H438.762V204.96C438.762 207.44 440.022 208.18 441.882 208.18C442.902 208.18 443.642 207.94 444.282 207.56ZM449.823 196.1V193.4H446.623V196.1H449.823ZM449.743 208V197.28H446.703V208H449.743ZM462.598 202.94V202.9C462.598 199.86 460.958 197.08 457.378 197.08C454.258 197.08 452.078 199.6 452.078 202.66V202.7C452.078 205.98 454.458 208.24 457.678 208.24C459.618 208.24 461.058 207.48 462.058 206.24L460.318 204.7C459.478 205.48 458.738 205.8 457.718 205.8C456.358 205.8 455.398 205.08 455.098 203.7H462.558C462.578 203.42 462.598 203.24 462.598 202.94ZM459.638 201.8H455.058C455.298 200.42 456.118 199.52 457.378 199.52C458.658 199.52 459.458 200.44 459.638 201.8ZM472.724 204.74V204.7C472.724 202.74 470.984 202.02 469.484 201.52C468.324 201.12 467.304 200.84 467.304 200.24V200.2C467.304 199.78 467.684 199.46 468.424 199.46C469.204 199.46 470.264 199.84 471.324 200.46L472.484 198.36C471.324 197.58 469.844 197.12 468.484 197.12C466.324 197.12 464.564 198.34 464.564 200.52V200.56C464.564 202.64 466.264 203.34 467.764 203.78C468.944 204.14 469.984 204.36 469.984 205.02V205.06C469.984 205.54 469.584 205.86 468.704 205.86C467.704 205.86 466.484 205.42 465.324 204.58L464.024 206.58C465.444 207.7 467.124 208.2 468.624 208.2C470.944 208.2 472.724 207.12 472.724 204.74ZM475.003 194V194.4L475.943 203.24H477.623L478.563 194.4V194H475.003ZM478.403 208V204.8H475.163V208H478.403Z" fill="white"/>
<path d="M271.586 171.8V169H260.926V183H264.006V177.58H270.686V174.78H264.006V171.8H271.586ZM283.471 183V172.28H280.431V178.26C280.431 179.7 279.691 180.44 278.531 180.44C277.371 180.44 276.691 179.7 276.691 178.26V172.28H273.651V179.22C273.651 181.68 274.991 183.2 277.291 183.2C278.831 183.2 279.731 182.38 280.431 181.48V183H283.471ZM294.052 179.74V179.7C294.052 177.74 292.312 177.02 290.812 176.52C289.652 176.12 288.632 175.84 288.632 175.24V175.2C288.632 174.78 289.012 174.46 289.752 174.46C290.532 174.46 291.592 174.84 292.652 175.46L293.812 173.36C292.652 172.58 291.172 172.12 289.812 172.12C287.652 172.12 285.892 173.34 285.892 175.52V175.56C285.892 177.64 287.592 178.34 289.092 178.78C290.272 179.14 291.312 179.36 291.312 180.02V180.06C291.312 180.54 290.912 180.86 290.032 180.86C289.032 180.86 287.812 180.42 286.652 179.58L285.352 181.58C286.772 182.7 288.452 183.2 289.952 183.2C292.272 183.2 294.052 182.12 294.052 179.74ZM306.231 177.94V177.9C306.231 174.86 304.591 172.08 301.011 172.08C297.891 172.08 295.711 174.6 295.711 177.66V177.7C295.711 180.98 298.091 183.24 301.311 183.24C303.251 183.24 304.691 182.48 305.691 181.24L303.951 179.7C303.111 180.48 302.371 180.8 301.351 180.8C299.991 180.8 299.031 180.08 298.731 178.7H306.191C306.211 178.42 306.231 178.24 306.231 177.94ZM303.271 176.8H298.691C298.931 175.42 299.751 174.52 301.011 174.52C302.291 174.52 303.091 175.44 303.271 176.8ZM311.421 183V179.8H308.181V183H311.421ZM319.731 171.08V168.56C319.171 168.38 318.531 168.26 317.571 168.26C315.431 168.26 314.251 169.34 314.251 171.7V172.38H312.991V174.88H314.251V183H317.291V174.88H319.711V172.4H317.251V171.98C317.251 171.18 317.651 170.82 318.351 170.82C318.871 170.82 319.291 170.92 319.731 171.08ZM324.628 171.1V168.4H321.428V171.1H324.628ZM324.548 183V172.28H321.508V183H324.548Z" fill="#071927"/>
<path d="M496.351 228H502.05V233.699" stroke="white" stroke-miterlimit="10" stroke-linecap="round"/>
<path d="M499.248 237.499V243.198C499.248 243.702 499.048 244.185 498.692 244.541C498.335 244.897 497.852 245.098 497.348 245.098H486.9C486.396 245.098 485.913 244.897 485.556 244.541C485.2 244.185 485 243.702 485 243.198V232.749C485 232.246 485.2 231.762 485.556 231.406C485.913 231.05 486.396 230.85 486.9 230.85H492.599" stroke="white" stroke-miterlimit="10" stroke-linecap="round"/>
<path d="M491.649 238.401L502.05 228" stroke="white" stroke-miterlimit="10" stroke-linecap="round"/>
<path d="M212.28 103.84V101H200.68V103.84H204.94V115H208.02V103.84H212.28ZM224.149 115V108.06C224.149 105.6 222.809 104.08 220.509 104.08C218.969 104.08 218.069 104.9 217.369 105.8V100.4H214.329V115H217.369V109.02C217.369 107.58 218.109 106.84 219.269 106.84C220.429 106.84 221.109 107.58 221.109 109.02V115H224.149ZM236.79 109.94V109.9C236.79 106.86 235.15 104.08 231.57 104.08C228.45 104.08 226.27 106.6 226.27 109.66V109.7C226.27 112.98 228.65 115.24 231.87 115.24C233.81 115.24 235.25 114.48 236.25 113.24L234.51 111.7C233.67 112.48 232.93 112.8 231.91 112.8C230.55 112.8 229.59 112.08 229.29 110.7H236.75C236.77 110.42 236.79 110.24 236.79 109.94ZM233.83 108.8H229.25C229.49 107.42 230.31 106.52 231.57 106.52C232.85 106.52 233.65 107.44 233.83 108.8ZM251.511 107.26V104.08C249.711 104 248.711 104.96 248.091 106.44V104.28H245.051V115H248.091V111.04C248.091 108.48 249.331 107.26 251.351 107.26H251.511ZM263.118 109.94V109.9C263.118 106.86 261.478 104.08 257.898 104.08C254.778 104.08 252.598 106.6 252.598 109.66V109.7C252.598 112.98 254.978 115.24 258.198 115.24C260.138 115.24 261.578 114.48 262.578 113.24L260.838 111.7C259.998 112.48 259.258 112.8 258.238 112.8C256.878 112.8 255.918 112.08 255.618 110.7H263.078C263.098 110.42 263.118 110.24 263.118 109.94ZM260.158 108.8H255.578C255.818 107.42 256.638 106.52 257.898 106.52C259.178 106.52 259.978 107.44 260.158 108.8ZM280.256 104.28H277.236L275.476 110.8L273.436 104.24H270.816L268.796 110.78L267.076 104.28H263.996L267.296 115.08H270.016L272.116 108.5L274.176 115.08H276.916L280.256 104.28ZM290.932 115V108.78C290.932 105.88 289.472 104.16 286.152 104.16C284.332 104.16 283.172 104.5 281.992 105.02L282.752 107.34C283.732 106.98 284.552 106.76 285.712 106.76C287.232 106.76 288.012 107.46 288.012 108.72V108.9C287.252 108.64 286.472 108.46 285.392 108.46C282.852 108.46 281.072 109.54 281.072 111.88V111.92C281.072 114.04 282.732 115.2 284.752 115.2C286.232 115.2 287.252 114.66 287.992 113.84V115H290.932ZM288.052 111.22C288.052 112.32 287.092 113.1 285.672 113.1C284.692 113.1 284.012 112.62 284.012 111.8V111.76C284.012 110.8 284.812 110.28 286.112 110.28C286.852 110.28 287.532 110.44 288.052 110.68V111.22ZM300.008 107.26V104.08C298.208 104 297.208 104.96 296.588 106.44V104.28H293.548V115H296.588V111.04C296.588 108.48 297.828 107.26 299.848 107.26H300.008ZM312.492 115V100.4H309.452V105.68C308.732 104.82 307.732 104.08 306.112 104.08C303.572 104.08 301.232 106.04 301.232 109.62V109.66C301.232 113.24 303.612 115.2 306.112 115.2C307.692 115.2 308.712 114.46 309.452 113.46V115H312.492ZM309.492 109.66C309.492 111.44 308.312 112.62 306.892 112.62C305.472 112.62 304.272 111.44 304.272 109.66V109.62C304.272 107.82 305.472 106.66 306.892 106.66C308.312 106.66 309.492 107.84 309.492 109.62V109.66ZM323.068 111.74V111.7C323.068 109.74 321.328 109.02 319.828 108.52C318.668 108.12 317.648 107.84 317.648 107.24V107.2C317.648 106.78 318.028 106.46 318.768 106.46C319.548 106.46 320.608 106.84 321.668 107.46L322.828 105.36C321.668 104.58 320.188 104.12 318.828 104.12C316.668 104.12 314.908 105.34 314.908 107.52V107.56C314.908 109.64 316.608 110.34 318.108 110.78C319.288 111.14 320.328 111.36 320.328 112.02V112.06C320.328 112.54 319.928 112.86 319.048 112.86C318.048 112.86 316.828 112.42 315.668 111.58L314.368 113.58C315.788 114.7 317.468 115.2 318.968 115.2C321.288 115.2 323.068 114.12 323.068 111.74ZM342.503 109.66V109.62C342.503 106.04 340.123 104.08 337.623 104.08C336.043 104.08 335.023 104.82 334.283 105.82V104.28H331.243V118.2H334.283V113.6C335.003 114.46 336.003 115.2 337.623 115.2C340.163 115.2 342.503 113.24 342.503 109.66ZM339.463 109.66C339.463 111.46 338.263 112.62 336.843 112.62C335.423 112.62 334.243 111.44 334.243 109.66V109.62C334.243 107.84 335.423 106.66 336.843 106.66C338.263 106.66 339.463 107.84 339.463 109.62V109.66ZM351.199 107.26V104.08C349.399 104 348.399 104.96 347.779 106.44V104.28H344.739V115H347.779V111.04C347.779 108.48 349.019 107.26 351.039 107.26H351.199ZM363.885 109.66V109.62C363.885 106.54 361.425 104.08 358.105 104.08C354.765 104.08 352.285 106.58 352.285 109.66V109.7C352.285 112.78 354.745 115.24 358.065 115.24C361.405 115.24 363.885 112.74 363.885 109.66ZM360.885 109.7C360.885 111.28 359.845 112.62 358.105 112.62C356.425 112.62 355.285 111.24 355.285 109.66V109.62C355.285 108.04 356.325 106.7 358.065 106.7C359.745 106.7 360.885 108.08 360.885 109.66V109.7ZM376.867 112.58V104.28H373.827V105.68C373.007 104.78 372.027 104.08 370.367 104.08C367.907 104.08 365.607 105.88 365.607 109.08V109.12C365.607 112.3 367.867 114.12 370.367 114.12C371.987 114.12 372.967 113.46 373.867 112.38V112.9C373.867 114.82 372.887 115.82 370.807 115.82C369.387 115.82 368.287 115.46 367.187 114.84L366.147 117.12C367.507 117.84 369.147 118.24 370.887 118.24C374.867 118.24 376.867 116.62 376.867 112.58ZM373.867 109.12C373.867 110.58 372.727 111.6 371.247 111.6C369.767 111.6 368.647 110.6 368.647 109.12V109.08C368.647 107.62 369.767 106.6 371.247 106.6C372.727 106.6 373.867 107.62 373.867 109.08V109.12ZM386.043 107.26V104.08C384.243 104 383.243 104.96 382.623 106.44V104.28H379.583V115H382.623V111.04C382.623 108.48 383.863 107.26 385.883 107.26H386.043ZM396.654 115V108.78C396.654 105.88 395.194 104.16 391.874 104.16C390.054 104.16 388.894 104.5 387.714 105.02L388.474 107.34C389.454 106.98 390.274 106.76 391.434 106.76C392.954 106.76 393.734 107.46 393.734 108.72V108.9C392.974 108.64 392.194 108.46 391.114 108.46C388.574 108.46 386.794 109.54 386.794 111.88V111.92C386.794 114.04 388.454 115.2 390.474 115.2C391.954 115.2 392.974 114.66 393.714 113.84V115H396.654ZM393.774 111.22C393.774 112.32 392.814 113.1 391.394 113.1C390.414 113.1 389.734 112.62 389.734 111.8V111.76C389.734 110.8 390.534 110.28 391.834 110.28C392.574 110.28 393.254 110.44 393.774 110.68V111.22ZM415.63 115V108.02C415.63 105.44 414.27 104.08 412.01 104.08C410.55 104.08 409.43 104.68 408.49 105.78C407.93 104.7 406.87 104.08 405.47 104.08C403.93 104.08 403.01 104.9 402.31 105.8V104.28H399.27V115H402.31V109.02C402.31 107.58 403.01 106.84 404.15 106.84C405.29 106.84 405.93 107.58 405.93 109.02V115H408.97V109.02C408.97 107.58 409.67 106.84 410.81 106.84C411.95 106.84 412.59 107.58 412.59 109.02V115H415.63ZM204.62 128.1V125.4H201.42V128.1H204.62ZM204.54 140V129.28H201.5V140H204.54ZM215.255 136.74V136.7C215.255 134.74 213.515 134.02 212.015 133.52C210.855 133.12 209.835 132.84 209.835 132.24V132.2C209.835 131.78 210.215 131.46 210.955 131.46C211.735 131.46 212.795 131.84 213.855 132.46L215.015 130.36C213.855 129.58 212.375 129.12 211.015 129.12C208.855 129.12 207.095 130.34 207.095 132.52V132.56C207.095 134.64 208.795 135.34 210.295 135.78C211.475 136.14 212.515 136.36 212.515 137.02V137.06C212.515 137.54 212.115 137.86 211.235 137.86C210.235 137.86 209.015 137.42 207.855 136.58L206.555 138.58C207.975 139.7 209.655 140.2 211.155 140.2C213.475 140.2 215.255 139.12 215.255 136.74ZM239.79 140V133.02C239.79 130.44 238.43 129.08 236.17 129.08C234.71 129.08 233.59 129.68 232.65 130.78C232.09 129.7 231.03 129.08 229.63 129.08C228.09 129.08 227.17 129.9 226.47 130.8V129.28H223.43V140H226.47V134.02C226.47 132.58 227.17 131.84 228.31 131.84C229.45 131.84 230.09 132.58 230.09 134.02V140H233.13V134.02C233.13 132.58 233.83 131.84 234.97 131.84C236.11 131.84 236.75 132.58 236.75 134.02V140H239.79ZM245.694 128.1V125.4H242.494V128.1H245.694ZM245.614 140V129.28H242.574V140H245.614ZM259.249 137.58V129.28H256.209V130.68C255.389 129.78 254.409 129.08 252.749 129.08C250.289 129.08 247.989 130.88 247.989 134.08V134.12C247.989 137.3 250.249 139.12 252.749 139.12C254.369 139.12 255.349 138.46 256.249 137.38V137.9C256.249 139.82 255.269 140.82 253.189 140.82C251.769 140.82 250.669 140.46 249.569 139.84L248.529 142.12C249.889 142.84 251.529 143.24 253.269 143.24C257.249 143.24 259.249 141.62 259.249 137.58ZM256.249 134.12C256.249 135.58 255.109 136.6 253.629 136.6C252.149 136.6 251.029 135.6 251.029 134.12V134.08C251.029 132.62 252.149 131.6 253.629 131.6C255.109 131.6 256.249 132.62 256.249 134.08V134.12ZM268.425 132.26V129.08C266.625 129 265.625 129.96 265.005 131.44V129.28H261.965V140H265.005V136.04C265.005 133.48 266.245 132.26 268.265 132.26H268.425ZM279.037 140V133.78C279.037 130.88 277.577 129.16 274.257 129.16C272.437 129.16 271.277 129.5 270.097 130.02L270.857 132.34C271.837 131.98 272.657 131.76 273.817 131.76C275.337 131.76 276.117 132.46 276.117 133.72V133.9C275.357 133.64 274.577 133.46 273.497 133.46C270.957 133.46 269.177 134.54 269.177 136.88V136.92C269.177 139.04 270.837 140.2 272.857 140.2C274.337 140.2 275.357 139.66 276.097 138.84V140H279.037ZM276.157 136.22C276.157 137.32 275.197 138.1 273.777 138.1C272.797 138.1 272.117 137.62 272.117 136.8V136.76C272.117 135.8 272.917 135.28 274.217 135.28C274.957 135.28 275.637 135.44 276.157 135.68V136.22ZM287.575 139.56V137.12C287.135 137.36 286.635 137.5 286.075 137.5C285.395 137.5 285.095 137.16 285.095 136.46V131.88H287.615V129.28H285.095V126.54H282.055V129.28H280.775V131.88H282.055V136.96C282.055 139.44 283.315 140.18 285.175 140.18C286.195 140.18 286.935 139.94 287.575 139.56ZM293.116 128.1V125.4H289.916V128.1H293.116ZM293.036 140V129.28H289.996V140H293.036ZM305.711 140V133.06C305.711 130.6 304.371 129.08 302.071 129.08C300.531 129.08 299.631 129.9 298.931 130.8V129.28H295.891V140H298.931V134.02C298.931 132.58 299.671 131.84 300.831 131.84C301.991 131.84 302.671 132.58 302.671 134.02V140H305.711ZM319.132 137.58V129.28H316.092V130.68C315.272 129.78 314.292 129.08 312.632 129.08C310.172 129.08 307.872 130.88 307.872 134.08V134.12C307.872 137.3 310.132 139.12 312.632 139.12C314.252 139.12 315.232 138.46 316.132 137.38V137.9C316.132 139.82 315.152 140.82 313.072 140.82C311.652 140.82 310.552 140.46 309.452 139.84L308.412 142.12C309.772 142.84 311.412 143.24 313.152 143.24C317.132 143.24 319.132 141.62 319.132 137.58ZM316.132 134.12C316.132 135.58 314.992 136.6 313.512 136.6C312.032 136.6 310.912 135.6 310.912 134.12V134.08C310.912 132.62 312.032 131.6 313.512 131.6C314.992 131.6 316.132 132.62 316.132 134.08V134.12ZM321.948 126V126.4L322.888 135.24H324.568L325.508 126.4V126H321.948ZM325.348 140V136.8H322.108V140H325.348Z" fill="white"/>
<rect x="25" y="60" width="490" height="199" stroke="url(#paint4_linear_2902_12422)" stroke-width="10"/>
<mask id="mask0_2902_12422" style="mask-type:alpha" maskUnits="userSpaceOnUse" x="24" y="0" width="225" height="145">
<rect x="24" width="225" height="145" fill="#071927"/>
</mask>
<g mask="url(#mask0_2902_12422)">
<path d="M56.2523 145.292C53.522 147.389 57.1967 165.391 59.7767 167.965C62.3567 170.538 84.7632 190.58 84.7632 190.58L91.5674 180.706C91.5674 180.706 59.7874 142.684 56.2523 145.292Z" fill="url(#paint5_linear_2902_12422)"/>
<path d="M200 15.3361L119.97 145.809L126.056 151.024L200 15.3361Z" fill="url(#paint6_linear_2902_12422)"/>
<path d="M196.834 13.5238L56.2434 145.284C56.0274 145.486 55.8556 145.731 55.7388 146.003C55.6219 146.275 55.5625 146.568 55.5643 146.864C55.5661 147.16 55.6291 147.452 55.7493 147.723C55.8695 147.993 56.0443 148.236 56.2627 148.435L91.5671 180.707L4.36859 302.505C3.1022 304.274 5.37098 306.414 7.06236 305.047L159.244 182.022C159.49 181.823 159.689 181.572 159.827 181.287C159.965 181.002 160.038 180.689 160.041 180.372C160.044 180.056 159.977 179.742 159.844 179.454C159.711 179.167 159.517 178.912 159.274 178.708L120.271 145.96L199.706 15.8591C200.842 14.0089 198.422 12.0342 196.834 13.5238Z" fill="#F3FC1F"/>
</g>
<defs>
<linearGradient id="paint0_linear_2902_12422" x1="52.4617" y1="184.248" x2="88.7062" y2="151.483" gradientUnits="userSpaceOnUse">
<stop stop-color="#3AD889"/>
<stop offset="0.15" stop-color="#35CE81"/>
<stop offset="0.4" stop-color="#29B36D"/>
<stop offset="0.71" stop-color="#15884C"/>
<stop offset="1" stop-color="#005B29"/>
</linearGradient>
<linearGradient id="paint1_linear_2902_12422" x1="171.08" y1="169.359" x2="15.3418" y2="315.981" gradientUnits="userSpaceOnUse">
<stop stop-color="#3AD889"/>
<stop offset="0.36" stop-color="#23A763"/>
<stop offset="0.79" stop-color="#0A7039"/>
<stop offset="1" stop-color="#005B29"/>
</linearGradient>
<linearGradient id="paint2_linear_2902_12422" x1="61901.9" y1="47218.6" x2="91740.8" y2="47218.6" gradientUnits="userSpaceOnUse">
<stop stop-color="#3AD889"/>
<stop offset="0.36" stop-color="#23A763"/>
<stop offset="0.79" stop-color="#0A7039"/>
<stop offset="1" stop-color="#005B29"/>
</linearGradient>
<linearGradient id="paint3_linear_2902_12422" x1="253.943" y1="176.391" x2="332.745" y2="176.96" gradientUnits="userSpaceOnUse">
<stop stop-color="#3FD987"/>
<stop offset="1" stop-color="#ECFB24"/>
</linearGradient>
<linearGradient id="paint4_linear_2902_12422" x1="532" y1="159" x2="11" y2="159" gradientUnits="userSpaceOnUse">
<stop stop-color="#F1FC21"/>
<stop offset="1" stop-color="#3AD889"/>
</linearGradient>
<linearGradient id="paint5_linear_2902_12422" x1="52.4617" y1="184.248" x2="88.7062" y2="151.483" gradientUnits="userSpaceOnUse">
<stop stop-color="#3AD889"/>
<stop offset="0.15" stop-color="#35CE81"/>
<stop offset="0.4" stop-color="#29B36D"/>
<stop offset="0.71" stop-color="#15884C"/>
<stop offset="1" stop-color="#005B29"/>
</linearGradient>
<linearGradient id="paint6_linear_2902_12422" x1="61901.9" y1="47218.6" x2="91740.8" y2="47218.6" gradientUnits="userSpaceOnUse">
<stop stop-color="#3AD889"/>
<stop offset="0.36" stop-color="#23A763"/>
<stop offset="0.79" stop-color="#0A7039"/>
<stop offset="1" stop-color="#005B29"/>
</linearGradient>
</defs>
</svg>
