<?xml version="1.0" encoding="UTF-8"?>
<svg width="120px" height="33px" viewBox="0 0 120 33" version="1.1" xmlns="http://www.w3.org/2000/svg" xmlns:xlink="http://www.w3.org/1999/xlink">
    <title>Group 17</title>
    <defs>
        <polygon id="path-1" points="0 0 29.0493517 0 29.0493517 11.14416 0 11.14416"></polygon>
        <linearGradient x1="7.60964324%" y1="42.6411407%" x2="100%" y2="57.3588593%" id="linearGradient-3">
            <stop stop-color="#B1FFBF" offset="0%"></stop>
            <stop stop-color="#FFF16D" offset="100%"></stop>
        </linearGradient>
        <linearGradient x1="7.60964324%" y1="42.9185485%" x2="100%" y2="57.0814515%" id="linearGradient-4">
            <stop stop-color="#B1FFBF" offset="0%"></stop>
            <stop stop-color="#FFF16D" offset="100%"></stop>
        </linearGradient>
        <linearGradient x1="7.60964324%" y1="34.0717862%" x2="100%" y2="65.9282138%" id="linearGradient-5">
            <stop stop-color="#B1FFBF" offset="0%"></stop>
            <stop stop-color="#FFF16D" offset="100%"></stop>
        </linearGradient>
        <polygon id="path-6" points="0 0 16.4044 0 16.4044 31.39316 0 31.39316"></polygon>
    </defs>
    <g id="Network-page" stroke="none" stroke-width="1" fill="none" fill-rule="evenodd">
        <g transform="translate(-52.000000, -40.000000)" id="Group-17">
            <g transform="translate(52.000008, 40.400120)">
                <g id="Group-3" transform="translate(0.000076, 21.429440)">
                    <mask id="mask-2" fill="white">
                        <use xlink:href="#path-1"></use>
                    </mask>
                    <g id="Clip-2"></g>
                    <path d="M14.4964759,5.672 C13.4728759,5.672 12.5216759,5.4564 11.7452759,5.0484 L3.38487587,0.656 L0.879675867,2.1688 C-0.311124133,2.8876 -0.290324133,3.9896 0.926075867,4.6288 L12.4892759,10.7044 C13.0508759,10.9992 13.7688759,11.1444 14.4964759,11.1444 C15.3460759,11.1444 16.2080759,10.9468 16.8496759,10.5596 L28.1696759,3.7236 C29.3604759,3.0044 29.3396759,1.9024 28.1232759,1.2636 L25.7192759,0 L17.6764759,4.8572 C16.8060759,5.3824 15.6768759,5.672 14.4964759,5.672" id="Fill-1" fill="url(#linearGradient-3)" mask="url(#mask-2)"></path>
                </g>
                <path d="M28.1234717,15.62096 L26.1214717,14.56896 L21.4594717,17.38416 L20.6590717,17.86736 L19.8590717,18.35056 L17.6766717,19.66856 C16.8062717,20.19456 15.6766717,20.48376 14.4966717,20.48376 C13.4730717,20.48376 12.5218717,20.26816 11.7454717,19.86056 L9.2450717,18.54656 L8.4174717,18.11216 L7.5898717,17.67736 L2.9826717,15.25616 L0.879871705,16.52616 C-0.310928295,17.24536 -0.290528295,18.34696 0.925871705,18.98616 L3.3302717,20.24936 L4.1578717,20.68416 L4.9850717,21.11896 L12.4894717,25.06176 C13.0506717,25.35656 13.7690717,25.50136 14.4966717,25.50136 C15.3458717,25.50136 16.2082717,25.30416 16.8494717,24.91696 L24.0642717,20.56016 L24.8646717,20.07696 L25.6646717,19.59376 L28.1698717,18.08096 C29.3606717,17.36216 29.3398717,16.26016 28.1234717,15.62096" id="Fill-4" fill="url(#linearGradient-4)"></path>
                <path d="M28.1234717,9.003 L16.5598717,2.9278 C15.9986717,2.6326 15.2806717,2.4878 14.5526717,2.4878 C13.7034717,2.4878 12.8410717,2.6854 12.1998717,3.0726 L0.879871705,9.9086 C-0.310928295,10.6274 -0.290528295,11.729 0.925871705,12.3682 L2.9278717,13.4202 L3.7554717,13.855 L4.5830717,14.2898 L9.1902717,16.7106 L10.0178717,17.145 L10.8454717,17.5802 L12.4894717,18.4442 C13.0506717,18.739 13.7690717,18.8838 14.4966717,18.8838 C15.3458717,18.8838 16.2082717,18.6862 16.8494717,18.299 L18.2038717,17.481 L19.0042717,16.9978 L19.8042717,16.5146 L24.4662717,13.6994 L25.2666717,13.2162 L26.0666717,12.733 L28.1698717,11.463 C29.3606717,10.7442 29.3398717,9.6422 28.1234717,9.003" id="Fill-6" fill="url(#linearGradient-5)"></path>
                <g id="Group-10" transform="translate(37.399672, 0.000000)">
                    <mask id="mask-7" fill="white">
                        <use xlink:href="#path-6"></use>
                    </mask>
                    <g id="Clip-9"></g>
                    <path d="M11.9496,4.86276 C10.4436,4.80276 9.1744,5.97436 9.1144,7.48036 C9.1144,7.48556 9.114,7.48996 9.114,7.49516 L9.114,10.12796 L15.1896,10.12796 L15.1896,14.58396 L9.114,14.58396 L9.114,31.39316 L3.6452,31.39316 L3.6452,14.58396 L0,14.58396 L0,10.12796 L3.6452,10.12796 L3.6452,7.08676 C3.6452,2.83396 7.2908,0.00156 11.3412,0.00156 C13.1964,-0.03804 15.0004,0.61156 16.4044,1.82436 L14.3792,5.67196 C13.6504,5.20116 12.8144,4.92196 11.9488,4.86156" id="Fill-8" fill="#FFFFFF" mask="url(#mask-7)"></path>
                </g>
                <path d="M75.6760317,10.128 L75.6760317,31.3932 L71.4236317,31.3932 L70.6128317,28.9636 L70.0080317,28.9636 C69.1976317,29.976 67.3756317,31.5964 63.7300317,31.5964 C58.0596317,31.5964 55.2240317,27.5456 55.2240317,21.672 L55.2240317,10.128 L61.0992317,10.128 L61.0992317,20.254 C61.0992317,22.8868 61.3012317,26.5324 64.9476317,26.5324 C66.7704317,26.5324 69.8084317,25.5196 69.8084317,20.0524 L69.8084317,10.128 L75.6760317,10.128 Z" id="Fill-11" fill="#FFFFFF"></path>
                <path d="M87.6256317,14.38072 C85.8024317,14.38072 84.9928317,15.19072 84.9928317,16.20392 C84.9928317,17.62192 86.8160317,18.02672 88.2332317,18.43112 C92.0812317,19.24152 95.9288317,20.45632 95.9288317,24.91112 C95.9288317,29.36632 92.2836317,31.79752 87.8276317,31.79752 C82.9668317,31.79752 79.1192317,28.75952 78.9164317,24.30392 L84.1816317,24.30392 C84.3808317,26.13272 85.9924317,27.47512 87.8268317,27.34152 C90.0544317,27.34152 90.4596317,26.12672 90.4596317,25.31672 C90.4596317,23.69632 89.0420317,23.29112 87.4216317,22.88632 C84.9912317,22.28112 79.5228317,21.26592 79.5228317,16.40552 C79.5220317,12.15312 83.5752317,10.12792 87.6256317,10.12792 C92.4864317,10.12792 95.5244317,12.96352 95.7264317,16.60792 L90.4612317,16.60792 C90.4612317,15.59552 89.8564317,14.38072 87.6256317,14.38072" id="Fill-13" fill="#FFFFFF"></path>
                <path d="M119.018232,22.27876 L103.423432,22.27876 C104.028232,25.51916 106.663432,26.73476 109.093832,26.73476 C110.658232,26.81036 112.164232,26.13276 113.144632,24.91156 L118.613032,24.91156 C117.115432,28.97316 113.220632,31.65116 108.891832,31.59476 C102.943832,31.57796 98.1350317,26.74276 98.1517878,20.79476 C98.1522317,20.68196 98.1542317,20.56956 98.1582317,20.45636 C97.9602317,14.72916 102.443032,9.92556 108.170632,9.72756 C108.343432,9.72160111 108.516632,9.72036 108.689832,9.72276 C114.158232,9.72276 119.828632,13.57116 119.018232,22.27956 M103.828632,18.02596 L113.347832,18.02596 C112.923032,15.93156 111.026232,14.46556 108.891832,14.58316 C106.614232,14.43396 104.527032,15.85316 103.828632,18.02596" id="Fill-15" fill="#FFFFFF"></path>
            </g>
        </g>
    </g>
</svg>