<?xml version="1.0" encoding="UTF-8"?>
<svg width="323px" height="37px" viewBox="0 0 323 37" version="1.1" xmlns="http://www.w3.org/2000/svg" xmlns:xlink="http://www.w3.org/1999/xlink">
    <title>Group 15</title>
    <defs>
        <polygon id="path-1" points="0 0 13.8198073 0 13.8198073 23.4239246 0 23.4239246"></polygon>
        <linearGradient x1="12.9359756%" y1="13.1910245%" x2="94.5417073%" y2="94.1809583%" id="linearGradient-3">
            <stop stop-color="#162E48" offset="0%"></stop>
            <stop stop-color="#0E1116" offset="100%"></stop>
        </linearGradient>
        <linearGradient x1="9.85187166%" y1="7.31871658%" x2="84.4005348%" y2="101.19492%" id="linearGradient-4">
            <stop stop-color="#B4FABB" offset="15.61%"></stop>
            <stop stop-color="#F7FB8D" offset="90.3%"></stop>
        </linearGradient>
    </defs>
    <g id="LP-rewards-new" stroke="none" stroke-width="1" fill="none" fill-rule="evenodd">
        <g id="home-page-copy-8" transform="translate(-19.000000, -16.000000)">
            <g id="Group-15" transform="translate(19.000000, 16.000000)">
                <g id="Group_4196_2_" transform="translate(51.000000, -0.000000)" fill="#262E42" fill-rule="nonzero">
                    <path d="M13.0163773,5.20085511 C11.3759512,5.1365378 9.99327508,6.38858132 9.9277454,7.99865784 C9.9277454,7.99865784 9.9277454,8.00080175 9.9277454,8.00080175 L9.9277454,8.01580912 L9.9277454,10.8307631 L16.5462423,10.8307631 L16.5462423,15.5945315 L9.9277454,15.5945315 L9.9277454,33.5669302 L3.97109816,33.5669302 L3.97109816,15.5923875 L4.96657417e-14,15.5923875 L4.96657417e-14,10.8286192 L3.97109816,10.8286192 L3.97109816,7.57630754 C3.97109816,3.02907414 7.94219632,0.00187302036 12.3545276,0.00187302036 C14.3750259,-0.0410051824 16.340916,0.653621703 17.8699417,1.95068734 L15.6615918,6.06485089 C14.8686827,5.56317592 13.9578203,5.26517241 13.0163773,5.20085511" id="Path_1824_2_"></path>
                    <path d="M41.6965307,10.8307631 L41.6965307,33.5690741 L37.0657672,33.5690741 L36.1833009,30.970655 L35.5236355,30.970655 C34.6411693,32.0533296 32.6556202,33.785609 28.6867064,33.785609 C22.5094425,33.785609 19.4186263,29.4527666 19.4186263,23.1732538 L19.4186263,10.8286192 L25.818691,10.8286192 L25.818691,21.6553654 C25.818691,24.4703194 26.0393076,28.3658042 30.0104057,28.3658042 C31.9959548,28.3658042 35.3052033,27.2831295 35.3052033,21.4366866 L35.3052033,10.8264753 L41.6965307,10.8264753 L41.6965307,10.8307631 Z" id="Path_1825_2_"></path>
                    <path d="M54.7150923,15.3779965 C52.7295432,15.3779965 51.847077,16.2441362 51.847077,17.3268109 C51.847077,18.8425553 53.8326261,19.2756252 55.376942,19.708695 C59.5686567,20.5748347 63.7603715,21.8761882 63.7603715,26.6378126 C63.7603715,31.399437 59.7892733,34 54.9357089,34 C49.638727,34 45.4491966,30.7519761 45.2263957,25.9882078 L50.9624264,25.9882078 C51.1808586,27.9434539 52.9348696,29.3798737 54.9335246,29.2362317 C57.3603068,29.2362317 57.8015399,27.9370221 57.8015399,27.0687385 C57.8015399,25.3364591 56.257224,24.9012454 54.4922914,24.4703194 C51.8448927,23.8228586 45.8860611,22.73804 45.8860611,17.5412019 C45.8860611,12.9939685 50.3005767,10.8307631 54.7150923,10.8307631 C60.0120742,10.8307631 63.3213227,13.8622521 63.5397549,17.7598807 L57.8037242,17.7598807 C57.8059085,16.6772061 57.1484275,15.3779965 54.7150923,15.3779965" id="Path_1826_2_"></path>
                    <path d="M72.3666018,19.2756252 L82.7355803,19.2756252 C82.272504,17.0352391 80.206135,15.4680408 77.8820159,15.5945315 C75.4006257,15.4358821 73.126746,16.9516266 72.3666018,19.2756252 M88.9150285,23.8228586 L71.9253687,23.8228586 C72.5828497,27.2874174 75.4552337,28.5866269 78.1026325,28.5866269 C79.806404,28.6680955 81.4490144,27.9434539 82.5171481,26.6378126 L88.4737953,26.6378126 C86.8421065,30.9813745 82.6001524,33.8434946 77.8842002,33.7834651 C71.4054999,33.7641699 66.1674948,28.5952025 66.182559,22.2363651 C66.182559,22.1163061 66.1849694,21.9962471 66.189338,21.8740443 C65.9752744,15.7510369 70.857235,10.6142282 77.0978442,10.4019811 C77.2856959,10.3954625 77.475732,10.3934055 77.6635837,10.3976933 C83.6202309,10.3976933 89.799679,14.5118568 88.9150285,23.8228586" id="Path_1827_2_"></path>
                </g>
                <g id="Group-16" transform="translate(155.000000, 0.000000)">
                    <path d="M166.485716,23.382093 C165.494773,22.2635151 164.191516,21.4602086 162.611733,20.9943172 L157.318895,19.4519426 C156.190447,19.1099234 155.641948,18.4241313 155.641948,17.3553215 C155.641948,16.7881398 155.89375,16.3314566 156.411669,15.9594012 C156.957132,15.5676139 157.664391,15.3689797 158.513709,15.3689797 C159.643458,15.3689797 160.532032,15.6138742 161.154489,16.0968666 C161.759162,16.5658274 162.053257,17.1985628 162.053257,18.03059 L162.053257,18.3594546 L167.809359,18.3594546 L167.809359,18.03059 C167.809359,15.8486835 167.007756,14.0600989 165.427105,12.7146045 C163.863154,11.3831416 161.60127,10.7078731 158.704567,10.7078731 C156.128202,10.7078731 153.989508,11.3728372 152.347696,12.6839104 C150.68246,14.0136194 149.838348,15.6827165 149.838348,17.6447223 C149.838348,21.0432084 151.539803,23.2433121 154.896517,24.1838647 L160.627461,25.7771038 C161.600186,26.029891 162.053257,26.6797273 162.053257,27.8219834 C162.053257,28.5296999 161.810563,29.0780267 161.311296,29.4985348 C160.801619,29.9280319 160.085034,30.1459595 159.181712,30.1459595 C157.920965,30.1459595 156.885127,29.8583126 156.102609,29.2911309 C155.343298,28.7406117 154.974162,28.0548195 154.974162,27.1949484 L154.974162,26.8660839 L149.122414,26.8660839 L149.122414,27.1949484 C149.122414,29.3788281 150.045689,31.2494096 151.866214,32.7551707 C153.667002,34.2447078 156.032122,35 158.895208,35 C161.730316,35 163.977235,34.2914066 165.573501,32.8939515 C167.183648,31.4844381 168,29.6158298 168,27.3396488 C168,25.8479193 167.490539,24.5164564 166.485716,23.382093" id="Fill-1" fill="#262E42"></path>
                    <polygon id="Fill-3" fill="#262E42" points="64.2296647 25.3966075 59.6523271 11.2867843 53.5507286 11.2867843 48.973391 25.3966075 44.5775854 11.2867843 38.1463231 11.2867843 46.5933056 34.4210888 51.4428327 34.4210888 56.6016363 19.0992902 61.76044 34.4210888 66.6097501 34.4210888 75.0567326 11.2867843 68.6256872 11.2867843"></polygon>
                    <path d="M117.506035,10.9972081 C116.108217,10.9972081 114.809299,11.4148661 113.645499,12.2385621 C112.925227,12.7478636 112.346798,13.4053735 111.914765,14.2029796 L111.914765,11.2866089 L106.063233,11.2866089 L106.063233,34.4211326 L111.914765,34.4211326 L111.914765,24.1563936 C111.914765,21.7026257 112.421623,19.7987192 113.421024,18.4975119 C114.414787,17.2037588 115.751009,16.5747506 117.506035,16.5747506 C118.316531,16.5747506 118.994076,16.6065408 119.519803,16.6690251 L119.883084,16.7119967 L119.883084,11.2620537 L119.636487,11.2000079 C119.103603,11.0656119 118.386801,10.9972081 117.506035,10.9972081" id="Fill-5" fill="#262E42"></path>
                    <g id="Group-9" transform="translate(0.000000, 10.997208)">
                        <mask id="mask-2" fill="white">
                            <use xlink:href="#path-1"></use>
                        </mask>
                        <g id="Clip-8"></g>
                        <path d="M11.4427583,0 C10.0449407,0 8.74602221,0.417657958 7.58222248,1.24135399 C6.8619506,1.75065554 6.28352088,2.40816536 5.85148788,3.20577148 L5.85148788,0.28940079 L-4.3376807e-05,0.28940079 L-4.3376807e-05,23.4239246 L5.85148788,23.4239246 L5.85148788,13.1591855 C5.85148788,10.7054176 6.35834587,8.80151115 7.3577475,7.50030381 C8.35151015,6.20655073 9.68773269,5.5775425 11.4427583,5.5775425 C12.2532539,5.5775425 12.9307997,5.60933274 13.4565266,5.671817 L13.8198073,5.71478863 L13.8198073,0.264845571 L13.5732102,0.202799796 C13.0403261,0.0684038231 12.3235244,0 11.4427583,0" id="Fill-7" fill="#262E42" mask="url(#mask-2)"></path>
                    </g>
                    <path d="M93.4800988,22.8538927 C93.4800988,24.8224758 92.9361536,26.4711833 91.8630114,27.754632 C90.8037498,29.0214182 89.2419678,29.6638002 87.2208255,29.6638002 C85.3239577,29.6638002 83.808589,29.0277762 82.7174454,27.7734869 C81.6156745,26.5071392 81.0569812,24.8520736 81.0569812,22.8538927 C81.0569812,20.855931 81.6156745,19.2008654 82.7174454,17.9342985 C83.808589,16.6802284 85.3237409,16.0442044 87.2208255,16.0442044 C89.241751,16.0442044 90.8037498,16.6865865 91.8630114,17.9533726 C92.9361536,19.2366021 93.4800988,20.8853096 93.4800988,22.8538927 L93.4800988,22.8538927 Z M93.2415263,13.620692 C92.6077912,12.844791 91.8074891,12.2039436 90.8523318,11.7086736 C89.5716316,11.0448058 88.1410645,10.7080485 86.6005372,10.7080485 C83.1488278,10.7080485 80.3544939,11.8722289 78.2958306,14.1681419 C76.245192,16.4548466 75.20545,19.3771368 75.20545,22.8538927 C75.20545,26.3600271 76.1955256,29.2888947 78.1481326,31.5587177 C80.1124513,33.8421337 82.9080865,34.9999562 86.4573937,34.9999562 C87.8994557,34.9999562 89.3356617,34.6564023 90.7261053,33.9785029 C91.760859,33.4740247 92.6032366,32.8375622 93.2415263,32.0794198 L93.2415263,34.4211546 L99.0930576,34.4211546 L99.0930576,11.2866308 L93.2415263,11.2866308 L93.2415263,13.620692 Z" id="Fill-10" fill="#262E42"></path>
                    <path d="M21.359694,20.2580992 C21.4520866,18.886734 21.9463654,17.7922729 22.8648692,16.9196856 C23.8475708,15.9868066 25.2174104,15.5136801 26.9364332,15.5136801 C28.6235741,15.5136801 29.936807,15.9539201 30.8396952,16.8219033 C31.6775182,17.6271829 32.1442527,18.7821551 32.2290543,20.2580992 L21.359694,20.2580992 Z M27.0320791,10.7078731 C23.551741,10.7078731 20.7355018,11.8214084 18.6614398,14.0171273 C16.5912816,16.2086805 15.5415629,19.1818352 15.5415629,22.8539365 C15.5415629,26.5589244 16.5997401,29.5408487 18.6870321,31.7166165 C20.7767098,33.8952344 23.6486881,35 27.222937,35 C29.9500369,35 32.3164586,34.3067536 34.2558356,32.9393348 C36.2140816,31.5585423 37.3911112,29.7578993 37.7546089,27.5873934 L37.8188066,27.2037181 L31.9857104,27.2037181 L31.8952698,27.3832781 C31.0893287,28.982656 29.5609469,29.7600918 27.222937,29.7600918 C25.4037138,29.7600918 23.9664233,29.3082319 22.9507553,28.4176667 C22.0149007,27.5968209 21.4820166,26.4210205 21.3644655,24.9192058 L37.8320365,24.9192058 L37.8537249,24.613581 C37.9491539,23.262167 37.997519,22.280616 37.997519,21.6963334 C37.997519,18.4695146 36.9783809,15.8028617 34.9678659,13.7704789 C32.9575678,11.7383153 30.2875084,10.7078731 27.0320791,10.7078731 L27.0320791,10.7078731 Z" id="Fill-12" fill="#262E42"></path>
                    <path d="M139.163619,22.8538927 C139.163619,24.8224758 138.619674,26.4711833 137.546532,27.754632 C136.48727,29.0214182 134.925488,29.6638002 132.904346,29.6638002 C131.007478,29.6638002 129.492326,29.0277762 128.400966,27.7734869 C127.299195,26.5071392 126.740502,24.8518544 126.740502,22.8538927 C126.740502,20.8561503 127.299195,19.2008654 128.400966,17.9342985 C129.492109,16.6802284 131.007261,16.0442044 132.904346,16.0442044 C134.925271,16.0442044 136.48727,16.6865865 137.546532,17.9533726 C138.619674,19.2366021 139.163619,20.8853096 139.163619,22.8538927 L139.163619,22.8538927 Z M138.925047,13.620692 C138.291312,12.844791 137.491226,12.2039436 136.536069,11.7086736 C135.255152,11.0448058 133.824585,10.7080485 132.284058,10.7080485 C128.832348,10.7080485 126.038231,11.8720097 123.979351,14.1681419 C121.928713,16.4548466 120.88897,19.3769176 120.88897,22.8538927 C120.88897,26.3602464 121.879046,29.2891139 123.831653,31.5587177 C125.795972,33.8421337 128.591607,34.9999562 132.140914,34.9999562 C133.583193,34.9999562 135.019399,34.6564023 136.409626,33.9785029 C137.44438,33.4740247 138.286757,32.8375622 138.925047,32.0794198 L138.925047,34.4211546 L144.776578,34.4211546 L144.776578,0 L138.925047,0 L138.925047,13.620692 Z" id="Fill-14" fill="#262E42"></path>
                </g>
                <g id="lp-rewards-11" fill-rule="nonzero">
                    <path d="M31.4658537,37 L6.53414634,37 C2.9195122,37 0,34.0063211 0,30.357775 L0,6.5954488 C0,2.94690265 2.9195122,0 6.53414634,0 L31.4195122,0 C35.0804878,0 38,2.94690265 38,6.5954488 L38,30.357775 C38,34.0063211 35.0804878,37 31.4658537,37 Z" id="Path" fill="url(#linearGradient-3)"></path>
                    <path d="M14.4705882,9 C13.7085561,9 13.1497326,9.2540107 12.7941176,9.66042781 C12.4385027,10.0668449 12.3368984,10.5748663 12.3368984,10.9812834 C12.3368984,11.9973262 12.8957219,12.8101604 13.657754,13.368984 C13.9117647,13.5213904 14.1149733,13.6737968 14.4197861,13.7754011 L10.355615,13.7754011 C10.1524064,13.7754011 10,13.9278075 10,14.131016 L10,17.7379679 C10,17.9411765 10.1524064,18.0935829 10.355615,18.0935829 L18.3315508,18.0935829 L18.3315508,14.486631 C18.3315508,14.2834225 18.4839572,14.131016 18.6871658,14.131016 L20.1604278,14.131016 C20.3636364,14.131016 20.5160428,14.2834225 20.5160428,14.486631 L20.5160428,18.0935829 L28.644385,18.0935829 C28.8475936,18.0935829 29,17.9411765 29,17.7379679 L29,14.131016 C29,13.9278075 28.8475936,13.7754011 28.644385,13.7754011 L24.5802139,13.7754011 C24.8342246,13.6737968 25.0882353,13.5213904 25.342246,13.368984 C26.1042781,12.8609626 26.6631016,11.9973262 26.6631016,10.9812834 C26.6631016,10.5748663 26.5614973,10.0668449 26.2058824,9.66042781 C25.8502674,9.2540107 25.2914439,9 24.5294118,9 C23.7165775,9 23.1069519,9.35561497 22.5989305,9.81283422 C22.1417112,10.2700535 21.7860963,10.828877 21.4812834,11.3877005 C21.1764706,11.9465241 20.8716578,12.4545455 20.5160428,12.8101604 C20.2112299,13.1657754 19.9064171,13.368984 19.4491979,13.368984 C18.9919786,13.368984 18.7379679,13.1657754 18.3823529,12.8101604 C18.0775401,12.4545455 17.7727273,11.9465241 17.4171123,11.3877005 C17.0614973,10.828877 16.7566845,10.2700535 16.2994652,9.81283422 C15.8930481,9.30481283 15.2326203,9 14.4705882,9 Z M14.4705882,9.76203209 C15.0294118,9.76203209 15.4358289,9.96524064 15.842246,10.3208556 C16.197861,10.6764706 16.5534759,11.184492 16.8582888,11.7433155 C17.1631016,12.302139 17.4679144,12.8609626 17.8743316,13.3181818 C17.8743316,13.3181818 17.8743316,13.3181818 17.8743316,13.3181818 L16.2994652,13.3181818 C15.486631,13.3181818 14.6737968,13.0641711 14.0641711,12.657754 C13.4545455,12.2513369 13.0989305,11.6925134 13.0989305,10.9304813 C13.0989305,10.6256684 13.1497326,10.3208556 13.3529412,10.1176471 C13.5561497,9.96524064 13.8609626,9.76203209 14.4705882,9.76203209 Z M24.5294118,9.76203209 C25.1390374,9.76203209 25.4438503,9.9144385 25.5962567,10.1684492 C25.7486631,10.3716578 25.8502674,10.6764706 25.8502674,10.9812834 C25.8502674,11.7433155 25.4946524,12.302139 24.8850267,12.7085561 C24.2754011,13.1149733 23.4625668,13.368984 22.6497326,13.368984 L21.0748663,13.368984 C21.0748663,13.368984 21.0748663,13.368984 21.0748663,13.368984 C21.4812834,12.9117647 21.7860963,12.3529412 22.0909091,11.7941176 C22.3957219,11.2352941 22.7513369,10.7272727 23.1069519,10.3716578 C23.5641711,10.0160428 23.9705882,9.76203209 24.5294118,9.76203209 Z M10.7620321,19.2620321 L10.7620321,27.644385 C10.7620321,27.8475936 10.9144385,28 11.1176471,28 L27.8315508,28 C28.0347594,28 28.1871658,27.8475936 28.1871658,27.644385 L28.1871658,19.2620321 C28.1871658,19.0588235 28.0347594,18.9064171 27.8315508,18.9064171 L20.4652406,18.9064171 L20.4652406,27.1871658 C20.4652406,27.3903743 20.3128342,27.5427807 20.1096257,27.5427807 L18.6363636,27.5427807 C18.4331551,27.5427807 18.2807487,27.3903743 18.2807487,27.1871658 L18.2807487,18.9064171 L11.1176471,18.9064171 C10.9144385,18.9064171 10.7620321,19.0588235 10.7620321,19.2620321 Z" id="Shape" fill="url(#linearGradient-4)"></path>
                </g>
            </g>
        </g>
    </g>
</svg>