<svg width="64" height="24" viewBox="0 0 64 24" fill="none" xmlns="http://www.w3.org/2000/svg">
<rect width="64" height="24" rx="8" fill="#FEF2EF"/>
<path d="M19.7733 11.4667C19.62 11.2667 19.4333 11.0933 19.26 10.92C18.8133 10.52 18.3067 10.2333 17.88 9.81333C16.8867 8.84 16.6667 7.23333 17.3 6C16.6667 6.15333 16.1133 6.5 15.64 6.88C13.9133 8.26667 13.2333 10.7133 14.0467 12.8133C14.0733 12.88 14.1 12.9467 14.1 13.0333C14.1 13.18 14 13.3133 13.8667 13.3667C13.7133 13.4333 13.5533 13.3933 13.4267 13.2867C13.3867 13.2533 13.36 13.22 13.3333 13.1733C12.58 12.22 12.46 10.8533 12.9667 9.76C11.8533 10.6667 11.2467 12.2 11.3333 13.6467C11.3733 13.98 11.4133 14.3133 11.5267 14.6467C11.62 15.0467 11.8 15.4467 12 15.8C12.72 16.9533 13.9667 17.78 15.3067 17.9467C16.7333 18.1267 18.26 17.8667 19.3533 16.88C20.5733 15.7733 21 14 20.3733 12.48L20.2867 12.3067C20.1467 12 19.7733 11.4667 19.7733 11.4667ZM17.6667 15.6667C17.48 15.8267 17.1733 16 16.9333 16.0667C16.1867 16.3333 15.44 15.96 15 15.52C15.7933 15.3333 16.2667 14.7467 16.4067 14.1533C16.52 13.62 16.3067 13.18 16.22 12.6667C16.14 12.1733 16.1533 11.7533 16.3333 11.2933C16.46 11.5467 16.5933 11.8 16.7533 12C17.2667 12.6667 18.0733 12.96 18.2467 13.8667C18.2733 13.96 18.2867 14.0533 18.2867 14.1533C18.3067 14.7 18.0667 15.3 17.6667 15.6667Z" fill="#FC6E4C"/>
<path d="M34.564 12.46V16H36.04V7.6H34.564V11.092H30.556V7.6H29.08V16H30.556V12.46H34.564ZM46.9092 11.788C46.9092 11.196 46.8012 10.636 46.5852 10.108C46.3692 9.58 46.0692 9.12 45.6852 8.728C45.3012 8.336 44.8412 8.028 44.3052 7.804C43.7692 7.572 43.1772 7.456 42.5292 7.456C41.8812 7.456 41.2892 7.572 40.7532 7.804C40.2172 8.036 39.7532 8.352 39.3612 8.752C38.9692 9.144 38.6652 9.604 38.4492 10.132C38.2332 10.66 38.1252 11.22 38.1252 11.812C38.1252 12.404 38.2332 12.964 38.4492 13.492C38.6652 14.02 38.9652 14.48 39.3492 14.872C39.7332 15.264 40.1932 15.576 40.7292 15.808C41.2652 16.032 41.8572 16.144 42.5052 16.144C43.1532 16.144 43.7452 16.028 44.2812 15.796C44.8172 15.564 45.2812 15.252 45.6732 14.86C46.0652 14.46 46.3692 13.996 46.5852 13.468C46.8012 12.94 46.9092 12.38 46.9092 11.788ZM45.3612 11.812C45.3612 12.22 45.2892 12.608 45.1452 12.976C45.0092 13.336 44.8172 13.652 44.5692 13.924C44.3212 14.188 44.0212 14.4 43.6692 14.56C43.3252 14.712 42.9452 14.788 42.5292 14.788C42.1132 14.788 41.7292 14.708 41.3772 14.548C41.0252 14.388 40.7212 14.172 40.4652 13.9C40.2172 13.628 40.0212 13.312 39.8772 12.952C39.7412 12.584 39.6732 12.196 39.6732 11.788C39.6732 11.38 39.7412 10.996 39.8772 10.636C40.0212 10.268 40.2172 9.952 40.4652 9.688C40.7132 9.416 41.0092 9.204 41.3532 9.052C41.7052 8.892 42.0892 8.812 42.5052 8.812C42.9212 8.812 43.3052 8.892 43.6572 9.052C44.0092 9.212 44.3092 9.428 44.5572 9.7C44.8132 9.972 45.0092 10.292 45.1452 10.66C45.2892 11.02 45.3612 11.404 45.3612 11.812ZM52.0875 8.968H54.7515V7.6H47.9355V8.968H50.5995V16H52.0875V8.968Z" fill="#FC6E4C"/>
</svg>
