<svg width="24" height="24" viewBox="0 0 24 24" fill="none"
  xmlns="http://www.w3.org/2000/svg">
  <g style="mix-blend-mode:overlay" opacity="0.4">
    <circle cx="12" cy="12" r="12" fill="white"/>
  </g>
  <path d="M14.0467 11.5L13.4467 12.1133C12.9667 12.5933 12.6667 13 12.6667 14H11.3333V13.6667C11.3333 12.9267 11.6333 12.26 12.1133 11.78L12.94 10.94C13.1867 10.7 13.3333 10.3667 13.3333 10C13.3333 9.25999 12.7333 8.66666 12 8.66666C11.6464 8.66666 11.3072 8.80714 11.0572 9.05719C10.8071 9.30723 10.6667 9.64637 10.6667 10H9.33334C9.33334 9.29275 9.61429 8.61447 10.1144 8.11438C10.6145 7.61428 11.2928 7.33333 12 7.33333C12.7072 7.33333 13.3855 7.61428 13.8856 8.11438C14.3857 8.61447 14.6667 9.29275 14.6667 10C14.6667 10.5867 14.4267 11.1133 14.0467 11.5ZM12.6667 16.6667H11.3333V15.3333H12.6667V16.6667ZM12 5.33333C11.1245 5.33333 10.2576 5.50577 9.44878 5.8408C8.63994 6.17583 7.90501 6.66689 7.28596 7.28595C6.03571 8.53619 5.33334 10.2319 5.33334 12C5.33334 13.7681 6.03571 15.4638 7.28596 16.714C7.90501 17.3331 8.63994 17.8242 9.44878 18.1592C10.2576 18.4942 11.1245 18.6667 12 18.6667C13.7681 18.6667 15.4638 17.9643 16.714 16.714C17.9643 15.4638 18.6667 13.7681 18.6667 12C18.6667 8.31333 15.6667 5.33333 12 5.33333Z" fill="#B2BCC4"/>
</svg>
