<svg width="24" height="24" viewBox="0 0 24 24" fill="none"
  xmlns="http://www.w3.org/2000/svg">
  <g style="mix-blend-mode:overlay">
    <circle cx="12" cy="12" r="12" fill="white"/>
  </g>
  <path d="M14.0466 11.5L13.4466 12.1134C12.9666 12.5934 12.6666 13 12.6666 14H11.3333V13.6667C11.3333 12.9267 11.6333 12.26 12.1133 11.78L12.9399 10.94C13.1866 10.7 13.3333 10.3667 13.3333 10C13.3333 9.26004 12.7333 8.66671 11.9999 8.66671C11.6463 8.66671 11.3072 8.80718 11.0571 9.05723C10.8071 9.30728 10.6666 9.64642 10.6666 10H9.33325C9.33325 9.2928 9.6142 8.61452 10.1143 8.11442C10.6144 7.61433 11.2927 7.33337 11.9999 7.33337C12.7072 7.33337 13.3854 7.61433 13.8855 8.11442C14.3856 8.61452 14.6666 9.2928 14.6666 10C14.6666 10.5867 14.4266 11.1134 14.0466 11.5ZM12.6666 16.6667H11.3333V15.3334H12.6666V16.6667ZM11.9999 5.33337C11.1244 5.33337 10.2575 5.50581 9.4487 5.84084C8.63986 6.17588 7.90493 6.66694 7.28587 7.286C6.03563 8.53624 5.33325 10.2319 5.33325 12C5.33325 13.7682 6.03563 15.4638 7.28587 16.7141C7.90493 17.3331 8.63986 17.8242 9.4487 18.1592C10.2575 18.4943 11.1244 18.6667 11.9999 18.6667C13.768 18.6667 15.4637 17.9643 16.714 16.7141C17.9642 15.4638 18.6666 13.7682 18.6666 12C18.6666 8.31337 15.6666 5.33337 11.9999 5.33337Z" fill="#7E8AB4"/>
</svg>
