<svg width="48" height="48" viewBox="0 0 48 48" fill="none"
  xmlns="http://www.w3.org/2000/svg">
  <circle cx="24" cy="24" r="24" fill="#EEF3F6"/>
  <path d="M28.0937 23L26.8937 24.2267C25.9337 25.1867 25.3337 26 25.3337 28H22.667V27.3333C22.667 25.8533 23.267 24.52 24.227 23.56L25.8803 21.88C26.3737 21.4 26.667 20.7333 26.667 20C26.667 18.52 25.467 17.3333 24.0003 17.3333C23.2931 17.3333 22.6148 17.6143 22.1147 18.1144C21.6146 18.6145 21.3337 19.2927 21.3337 20H18.667C18.667 18.5855 19.2289 17.2289 20.2291 16.2288C21.2293 15.2286 22.5858 14.6667 24.0003 14.6667C25.4148 14.6667 26.7714 15.2286 27.7716 16.2288C28.7718 17.2289 29.3337 18.5855 29.3337 20C29.3337 21.1733 28.8537 22.2267 28.0937 23ZM25.3337 33.3333H22.667V30.6667H25.3337V33.3333ZM24.0003 10.6667C22.2494 10.6667 20.5156 11.0115 18.8979 11.6816C17.2802 12.3517 15.8103 13.3338 14.5722 14.5719C12.0718 17.0724 10.667 20.4638 10.667 24C10.667 27.5362 12.0718 30.9276 14.5722 33.4281C15.8103 34.6662 17.2802 35.6483 18.8979 36.3184C20.5156 36.9884 22.2494 37.3333 24.0003 37.3333C27.5365 37.3333 30.9279 35.9286 33.4284 33.4281C35.9289 30.9276 37.3337 27.5362 37.3337 24C37.3337 16.6267 31.3337 10.6667 24.0003 10.6667Z" fill="#869AAC"/>
</svg>
