<svg width="18" height="18" viewBox="0 0 18 18" fill="none"
  xmlns="http://www.w3.org/2000/svg">
  <path d="M15.5 0.5L0.5 15.5L2.5 17.5L17.5 2.5L15.5 0.5ZM4 1C3.20435 1 2.44129 1.31607 1.87868 1.87868C1.31607 2.44129 1 3.20435 1 4C1 4.79565 1.31607 5.55871 1.87868 6.12132C2.44129 6.68393 3.20435 7 4 7C4.79565 7 5.55871 6.68393 6.12132 6.12132C6.68393 5.55871 7 4.79565 7 4C7 3.20435 6.68393 2.44129 6.12132 1.87868C5.55871 1.31607 4.79565 1 4 1ZM14 11C13.2044 11 12.4413 11.3161 11.8787 11.8787C11.3161 12.4413 11 13.2044 11 14C11 14.7956 11.3161 15.5587 11.8787 16.1213C12.4413 16.6839 13.2044 17 14 17C14.7956 17 15.5587 16.6839 16.1213 16.1213C16.6839 15.5587 17 14.7956 17 14C17 13.2044 16.6839 12.4413 16.1213 11.8787C15.5587 11.3161 14.7956 11 14 11Z" fill="#7E8AB4"/>
</svg>
