<svg width="16" height="16" viewBox="0 0 16 16" fill="none"
  xmlns="http://www.w3.org/2000/svg">
  <path fill-rule="evenodd" clip-rule="evenodd" d="M11.2398 3.33506H14.2528C14.9045 3.33506 15.4334 3.83375 15.4429 4.42867V14.0874C15.4429 14.6911 14.914 15.181 14.2622 15.181H1.18065C0.52893 15.181 0 14.6911 0 14.0874V4.42867V1.5678C0 1.06911 0.434479 0.666666 0.972854 0.666666H0.9823H0.991745H12.7227C13.0721 0.666666 13.3649 0.93788 13.3649 1.26159C13.3649 1.5678 13.1005 1.82151 12.7793 1.84776C12.7699 1.84776 12.7604 1.84995 12.751 1.85213C12.7416 1.85432 12.7321 1.85651 12.7227 1.85651H1.99293C1.98349 1.85651 1.97641 1.8587 1.96932 1.86088C1.96224 1.86307 1.95515 1.86526 1.94571 1.86526C1.55846 1.909 1.24676 2.21521 1.24676 2.59141C1.24676 2.96761 1.54901 3.27382 1.94571 3.31757V3.33506H11.2398ZM11.5822 9.90307C11.5822 10.6337 12.1565 11.2226 12.8691 11.2226C13.571 11.2226 14.156 10.6337 14.156 9.90307C14.156 9.17244 13.5817 8.58358 12.8691 8.58358C12.1565 8.58358 11.5822 9.17244 11.5822 9.90307Z" fill="white"/>
</svg>
